<svg width="65" height="64" viewBox="0 0 65 64" fill="none" xmlns="http://www.w3.org/2000/svg">
<g clip-path="url(#clip0_403_1428)">
<path d="M53.8985 46.2552V33.8196C53.8985 33.7214 53.8894 33.6097 53.8894 33.507C58.0282 31.5602 60.8973 27.3897 60.8973 22.5628C60.8973 22.344 60.8928 22.1252 60.8792 21.9109C60.8792 21.8885 60.8792 21.8618 60.8747 21.8394C60.8611 21.643 60.8476 21.4465 60.825 21.25C60.825 21.2322 60.8205 21.2188 60.8205 21.2009C60.7979 21 60.7708 20.7946 60.7346 20.5981C60.7346 20.5758 60.7256 20.5579 60.7256 20.5356C60.694 20.3436 60.6533 20.1516 60.6126 19.964C60.6126 19.9506 60.6081 19.9372 60.6036 19.9238L59.1894 16.4097C58.6969 15.5926 58.114 14.838 57.4498 14.1592V2.47377C57.4498 1.46909 56.8444 0.571583 55.9046 0.187574C54.9648 -0.196435 53.8985 0.01343 53.1801 0.7234L43.3302 10.4531H33.9141L24.0688 0.7234C23.3504 0.01343 22.2795 -0.196435 21.3442 0.187574C20.4044 0.571583 19.799 1.46909 19.799 2.47377V14.0298C19.0806 14.7397 18.4571 15.539 17.9375 16.4097L16.5232 19.9238C16.5232 19.9238 16.5232 19.9462 16.5142 19.9596C16.4735 20.1516 16.4329 20.3436 16.4012 20.5356C16.4012 20.5579 16.3922 20.5758 16.3877 20.5981C16.3561 20.7946 16.3289 20.9955 16.3018 21.1964C16.3018 21.2143 16.2973 21.2366 16.2928 21.2545C16.2702 21.4465 16.2567 21.643 16.2431 21.8394C16.2431 21.8662 16.2431 21.8885 16.2386 21.9153C16.225 22.1341 16.2205 22.3485 16.2205 22.5673C16.2205 27.3897 19.0896 31.5647 23.2284 33.5115C23.2284 33.6142 23.2193 33.7214 23.2193 33.8241V45.5989C18.6016 47.0054 14.7566 50.1757 12.4929 54.3105H8.48973C7.2969 54.3105 6.32999 53.3549 6.32999 52.1761C6.32999 50.9973 7.2969 50.0418 8.48973 50.0418H12.6963C15.7822 50.0418 18.2944 47.5591 18.2944 44.5093V36.9363C18.2944 35.2083 16.8711 33.8062 15.1271 33.8062C13.383 33.8062 11.9598 35.2128 11.9598 36.9363V43.7815H8.48973C3.80427 43.7815 -0.00463867 47.5457 -0.00463867 52.1761C-0.00463867 56.8066 3.80427 60.5707 8.48973 60.5707H10.4552C10.3558 61.3298 10.3016 62.0979 10.3016 62.8837V64H64.9954V62.8837C64.9954 55.4357 60.4138 49.0281 53.8939 46.2552H53.8985ZM46.2761 47.2599V50.7562C46.2761 50.85 46.1044 50.85 46.1044 50.7562V47.2599C46.1044 47.2153 46.1406 47.1751 46.1903 47.1751C46.24 47.1751 46.2761 47.2108 46.2761 47.2599ZM29.7754 47.0277H29.9471V50.3186C29.9471 50.4124 29.7754 50.4124 29.7754 50.3186V47.0277ZM37.0679 44.746C36.9323 44.7326 36.8013 44.7147 36.6703 44.6969C36.5799 44.6835 36.4895 44.6656 36.3992 44.6522C36.2862 44.6344 36.1687 44.6165 36.0558 44.5942C35.9518 44.5719 35.8479 44.5495 35.744 44.5272C35.6446 44.5049 35.5497 44.487 35.4503 44.4647C35.3419 44.4379 35.2334 44.4066 35.125 44.3754C35.0346 44.3531 34.9443 44.3307 34.8584 44.3039C34.75 44.2727 34.6461 44.237 34.5421 44.2012C34.4518 44.1745 34.3659 44.1477 34.2756 44.1164C34.1671 44.0807 34.0632 44.036 33.9548 44.0003C33.8689 43.9691 33.7876 43.9378 33.7017 43.9065C33.5978 43.8664 33.4939 43.8172 33.39 43.7726C33.3087 43.7369 33.2228 43.7056 33.146 43.6699C33.0421 43.6208 32.9382 43.5717 32.8342 43.5225C32.7574 43.4868 32.6761 43.4511 32.5993 43.4109C32.4908 43.3573 32.3869 43.2993 32.283 43.2412C32.2107 43.201 32.1384 43.1653 32.0661 43.1251C31.9622 43.0671 31.8583 43.0001 31.7544 42.9376C31.6866 42.8974 31.6188 42.8572 31.551 42.817C31.4471 42.7545 31.3477 42.6831 31.2483 42.6161C31.1805 42.5714 31.1173 42.5313 31.0495 42.4866C30.9501 42.4196 30.8552 42.3437 30.7558 42.2723C30.6926 42.2276 30.6293 42.1785 30.5661 42.1339C30.4712 42.0579 30.3763 41.982 30.2814 41.9061C30.2227 41.857 30.1594 41.8079 30.1007 41.7588C30.0103 41.6829 29.9199 41.6025 29.8296 41.5221C29.7708 41.4685 29.7121 41.4194 29.6534 41.3658C29.5675 41.2855 29.4817 41.2006 29.3958 41.1158C29.3371 41.0622 29.2783 41.0086 29.2241 40.9506C29.1383 40.8657 29.0569 40.7764 28.9756 40.6916C28.9214 40.6335 28.8672 40.5755 28.813 40.5174C28.7316 40.4281 28.6548 40.3388 28.578 40.2495C28.5238 40.187 28.4741 40.129 28.4199 40.0665C28.3431 39.9771 28.2708 39.8834 28.1985 39.7896C28.1488 39.7271 28.0991 39.6646 28.0494 39.5976C27.9771 39.5038 27.9093 39.4056 27.8415 39.3118C27.7963 39.2449 27.7466 39.1779 27.6969 39.1109C27.6292 39.0127 27.5704 38.9144 27.5072 38.8162C27.462 38.7448 27.4168 38.6778 27.3716 38.6063C27.3129 38.5081 27.2542 38.4054 27.1954 38.3072C27.1548 38.2357 27.1096 38.1643 27.0689 38.0884C27.0147 37.9901 26.9605 37.8874 26.9108 37.7847C26.8701 37.7088 26.8294 37.6329 26.7933 37.557C26.7436 37.4543 26.6984 37.3516 26.6487 37.2489C26.6126 37.1685 26.5719 37.0926 26.5403 37.0122C26.4951 36.9095 26.4544 36.8024 26.4092 36.6952C26.3776 36.6148 26.3415 36.5345 26.3098 36.4496C26.2692 36.3425 26.233 36.2353 26.1969 36.1326C26.1652 36.0478 26.1336 35.9629 26.1065 35.8781C26.0704 35.7709 26.0433 35.6637 26.0071 35.5566C25.98 35.4673 25.9529 35.3824 25.9303 35.2931C25.8987 35.186 25.8761 35.0743 25.849 34.9672C25.8264 34.8779 25.8038 34.7886 25.7812 34.6993C25.7586 34.5966 25.7405 34.4894 25.7179 34.3822C26.6035 34.5832 27.5252 34.6948 28.4741 34.6948H48.6392C49.588 34.6948 50.5098 34.5832 51.3953 34.3822C51.3727 34.4894 51.3547 34.5966 51.3321 34.6993C51.314 34.7886 51.2869 34.8779 51.2643 34.9672C51.2372 35.0743 51.2101 35.186 51.183 35.2931C51.1604 35.3824 51.1333 35.4673 51.1062 35.5521C51.0745 35.6593 51.0429 35.7709 51.0068 35.8781C50.9797 35.9629 50.948 36.0478 50.9164 36.1326C50.8802 36.2398 50.8441 36.3469 50.8034 36.4541C50.7718 36.5345 50.7357 36.6148 50.704 36.6997C50.6634 36.8068 50.6182 36.914 50.573 37.0167C50.5369 37.0971 50.5007 37.173 50.4646 37.2534C50.4149 37.3561 50.3697 37.4632 50.32 37.5615C50.2838 37.6374 50.2387 37.7133 50.2025 37.7892C50.1483 37.8919 50.0986 37.9946 50.0444 38.0928C50.0037 38.1643 49.9585 38.2402 49.9179 38.3116C49.8591 38.4099 49.8004 38.5126 49.7416 38.6108C49.6965 38.6822 49.6513 38.7492 49.6061 38.8207C49.5428 38.9189 49.4796 39.0171 49.4163 39.1154C49.3711 39.1823 49.3214 39.2493 49.2717 39.3163C49.204 39.4101 49.1362 39.5083 49.0639 39.6021C49.0142 39.6646 48.9645 39.7271 48.9148 39.7941C48.8425 39.8878 48.7702 39.9816 48.6934 40.0709C48.6437 40.1334 48.585 40.1959 48.5353 40.254C48.4585 40.3433 48.3816 40.4326 48.3048 40.5219C48.2506 40.58 48.1964 40.638 48.1422 40.696C48.0608 40.7854 47.9795 40.8702 47.8937 40.955C47.8394 41.0086 47.7807 41.0622 47.7265 41.1158C47.6406 41.2006 47.5548 41.2855 47.4644 41.3658C47.4057 41.4194 47.347 41.4685 47.2882 41.5221C47.1978 41.6025 47.1075 41.6829 47.0171 41.7588C46.9584 41.8079 46.8951 41.857 46.8364 41.9061C46.7415 41.982 46.6466 42.0579 46.5517 42.1339C46.4885 42.183 46.4252 42.2276 46.362 42.2723C46.2626 42.3437 46.1677 42.4152 46.0683 42.4866C46.0005 42.5313 45.9372 42.5759 45.8695 42.6206C45.7701 42.6875 45.6707 42.7545 45.5667 42.8215C45.499 42.8661 45.4267 42.9063 45.3589 42.9465C45.255 43.009 45.1556 43.0715 45.0517 43.1296C44.9794 43.1698 44.9071 43.21 44.8303 43.2502C44.7263 43.3082 44.6224 43.3618 44.5185 43.4154C44.4417 43.4556 44.3649 43.4913 44.2836 43.527C44.1796 43.5761 44.0757 43.6297 43.9718 43.6744C43.8905 43.7101 43.8046 43.7458 43.7233 43.7815C43.6194 43.8262 43.52 43.8708 43.416 43.911C43.3302 43.9467 43.2444 43.9735 43.1585 44.0048C43.0546 44.045 42.9507 44.0852 42.8422 44.1209C42.7519 44.1521 42.6615 44.1789 42.5711 44.2057C42.4672 44.2414 42.3633 44.2727 42.2594 44.3039C42.169 44.3307 42.0786 44.3531 41.9883 44.3754C41.8798 44.4066 41.7759 44.4334 41.6675 44.4602C41.5726 44.4826 41.4732 44.5049 41.3738 44.5227C41.2699 44.5451 41.1659 44.5719 41.062 44.5897C40.9491 44.612 40.8316 44.6299 40.7186 44.6478C40.6283 44.6612 40.5379 44.679 40.4475 44.6924C40.3165 44.7103 40.1855 44.7237 40.0544 44.7415C39.9776 44.7505 39.9008 44.7594 39.824 44.7683C39.7156 44.7773 39.6117 44.7817 39.5032 44.7907H37.6055C37.4971 44.7817 37.3887 44.7773 37.2847 44.7683C37.2079 44.7594 37.1356 44.7505 37.0633 44.7415L37.0679 44.746ZM22.9934 30.819C22.7991 30.694 22.6139 30.5645 22.4331 30.426C22.397 30.3993 22.3654 30.3725 22.3292 30.3457C22.153 30.2072 21.9768 30.0688 21.8096 29.917C21.7961 29.9036 21.7825 29.8947 21.7735 29.8858C21.6018 29.7295 21.4346 29.5687 21.2719 29.399C21.2403 29.3633 21.2042 29.3276 21.1725 29.2963C21.0144 29.1311 20.8653 28.9615 20.7207 28.7873C20.6936 28.7561 20.6665 28.7203 20.6394 28.6846C20.4993 28.5105 20.3683 28.3363 20.2418 28.1532C20.2282 28.1354 20.2192 28.122 20.2056 28.1041C20.0746 27.9121 19.9526 27.7157 19.8351 27.5147C19.808 27.4745 19.7854 27.4299 19.7628 27.3852C19.6499 27.1843 19.5414 26.9834 19.442 26.778C19.424 26.7422 19.4059 26.7021 19.3923 26.6663C19.2975 26.4654 19.2116 26.26 19.1303 26.0501C19.1212 26.0278 19.1122 26.0055 19.1032 25.9876C19.0218 25.7688 18.9496 25.5411 18.8818 25.3134C18.8727 25.291 18.8682 25.2642 18.8592 25.2419C19.677 26.2645 20.662 27.1486 21.7599 27.863C21.7238 27.9836 21.7012 28.1086 21.7012 28.2381C21.7012 28.5953 21.8413 28.9302 22.0988 29.1847L22.2253 29.3097C22.4874 29.5687 22.8353 29.6982 23.1832 29.6982C23.4181 29.6982 23.6531 29.6312 23.8654 29.5107C23.7073 30.0331 23.5808 30.5645 23.4814 31.1048C23.3594 31.0378 23.2419 30.9663 23.1244 30.8949C23.0838 30.8681 23.0431 30.8458 23.0025 30.819H22.9934ZM19.3291 18.5977C19.6725 18.8745 20.1062 19.0487 20.5852 19.0487H22.8895C22.6455 19.1022 22.4106 19.2183 22.2208 19.4059L22.0943 19.5309C21.5656 20.0533 21.5656 20.9017 22.0943 21.4242L23.6395 22.9513H21.4708C21.0189 22.9513 20.6168 23.1745 20.3728 23.5139C19.6454 22.5181 19.0987 21.384 18.7914 20.1516C18.927 19.6157 19.1122 19.0978 19.3336 18.5977H19.3291ZM58.3354 20.1516C58.0508 21.2768 57.5718 22.3172 56.9393 23.2504C56.7088 23.0674 56.4151 22.9513 56.0989 22.9513H53.9301L55.4753 21.4242C56.004 20.9017 56.004 20.0533 55.4753 19.5309L55.3488 19.4059C55.1591 19.2183 54.9241 19.0978 54.6801 19.0487H56.501C56.9935 19.0487 57.4363 18.8656 57.7842 18.5753C58.0101 19.0799 58.1953 19.6068 58.3354 20.1516ZM58.0191 25.9832C58.0191 25.9832 58.0011 26.0278 57.992 26.0457C57.9107 26.2555 57.8248 26.4609 57.73 26.6619C57.7119 26.6976 57.6983 26.7378 57.6803 26.7735C57.5809 26.9789 57.4724 27.1843 57.3595 27.3808C57.3369 27.4254 57.3098 27.4656 57.2872 27.5103C57.1697 27.7112 57.0477 27.9077 56.9167 28.0997C56.9031 28.1175 56.8941 28.1309 56.8805 28.1488C56.754 28.3319 56.623 28.506 56.4829 28.6801C56.4558 28.7159 56.4287 28.7471 56.4016 28.7828C56.257 28.957 56.1079 29.1267 55.9498 29.2919C55.9181 29.3276 55.882 29.3633 55.8504 29.3946C55.6877 29.5598 55.5205 29.725 55.3488 29.8813C55.3353 29.8947 55.3217 29.9036 55.3127 29.9125C55.1455 30.0599 54.9738 30.2028 54.7931 30.3412C54.7569 30.368 54.7253 30.3948 54.6892 30.4216C54.5084 30.56 54.3187 30.6895 54.1289 30.8145C54.0882 30.8413 54.0476 30.8636 54.0069 30.8904C53.8894 30.9663 53.7674 31.0333 53.65 31.1003C53.5189 30.3859 53.3382 29.6937 53.1078 29.0195C53.1168 29.0195 53.1258 29.015 53.1349 29.0106L53.4331 29.3053C53.6951 29.5643 54.043 29.6937 54.391 29.6937C54.7389 29.6937 55.0868 29.5643 55.3488 29.3008L55.4708 29.1802C55.7284 28.9257 55.8684 28.5908 55.8684 28.2336C55.8684 28.0193 55.8097 27.8139 55.7148 27.6264C56.6727 26.9566 57.5312 26.1528 58.2631 25.2419C58.2586 25.2642 58.2496 25.291 58.2405 25.3134C58.1727 25.5411 58.1005 25.7644 58.0191 25.9876V25.9832ZM51.1152 32.1407C50.8802 32.1987 50.6453 32.2479 50.4058 32.2925C50.3606 32.3014 50.3155 32.3104 50.2703 32.3148C50.0353 32.355 49.7913 32.3818 49.5519 32.4041C49.5067 32.4041 49.457 32.4131 49.4118 32.4131C49.1588 32.4309 48.9058 32.4443 48.6482 32.4443H28.4831C28.2256 32.4443 27.9726 32.4309 27.7195 32.4131C27.6744 32.4131 27.6247 32.4086 27.5795 32.4041C27.3355 32.3818 27.096 32.3506 26.8611 32.3148C26.8159 32.3059 26.7707 32.297 26.7255 32.2925C26.486 32.2523 26.2466 32.2032 26.0161 32.1407C26.0116 32.1407 26.0026 32.1407 25.9981 32.1407C25.8716 32.1094 25.745 32.0648 25.6231 32.0291C25.7405 31.2119 25.9303 30.4171 26.1924 29.658C26.9424 29.8009 27.706 29.8813 28.4876 29.8813H48.6527C49.4344 29.8813 50.2025 29.8009 50.948 29.658C51.2101 30.4171 51.4044 31.2119 51.5173 32.0291C51.3908 32.0648 51.2688 32.1094 51.1423 32.1407C51.1378 32.1407 51.1288 32.1407 51.1242 32.1407H51.1152ZM35.9564 18.8879C35.9202 18.8924 35.8841 18.9013 35.8479 18.9058C35.5813 17.6734 34.7635 16.6464 33.6611 16.0838H33.887C34.9307 16.6821 35.6988 17.6912 35.9564 18.8879ZM54.1515 25.9832L53.9617 25.7956H54.4135C54.3232 25.8581 54.2373 25.9206 54.147 25.9832H54.1515ZM29.7754 19.7765C29.7754 18.7093 30.6519 17.8431 31.7318 17.8431C32.7032 17.8431 33.5029 18.5441 33.6566 19.4639C32.4637 19.8658 31.3342 20.4061 30.2904 21.0714C29.9742 20.7276 29.7799 20.2766 29.7799 19.781L29.7754 19.7765ZM45.4357 17.8475C46.5156 17.8475 47.3921 18.7138 47.3921 19.781C47.3921 20.29 47.1888 20.7454 46.8635 21.0937C45.8243 20.4284 44.6992 19.8881 43.5109 19.4818C43.66 18.5575 44.4598 17.8475 45.4357 17.8475ZM38.1251 22.402C38.2291 22.8128 38.5092 23.1477 38.8887 23.3263H37.235C37.4293 23.0316 37.601 22.7235 37.7456 22.402H38.1251ZM31.7273 23.9425C32.3779 23.9425 32.9924 23.7907 33.5436 23.5273C33.5436 23.5675 33.5436 23.6032 33.5526 23.6434C32.9969 23.9024 32.3779 24.0497 31.7273 24.0497C31.2302 24.0497 30.7513 23.9604 30.3085 23.8086C30.3401 23.7818 30.3718 23.755 30.4079 23.7282C30.8236 23.8622 31.2664 23.9425 31.7273 23.9425ZM43.5787 23.5094C44.139 23.7863 44.7715 23.9425 45.4402 23.9425C45.8921 23.9425 46.3213 23.8711 46.7325 23.7416C46.7641 23.7684 46.8002 23.7952 46.8319 23.822C46.3936 23.9693 45.9282 24.0542 45.4448 24.0542C44.7761 24.0542 44.1435 23.8979 43.5787 23.63C43.5787 23.5898 43.5787 23.5541 43.5832 23.5139L43.5787 23.5094ZM28.578 25.4875C29.5133 25.9921 30.5886 26.2823 31.7273 26.2823C32.7529 26.2823 33.7153 26.0412 34.5828 25.6304C35.1476 26.135 35.8886 26.4431 36.7064 26.4431H40.4114C41.2382 26.4431 41.9883 26.126 42.5531 25.617C43.4251 26.0412 44.401 26.2823 45.4357 26.2823C46.5653 26.2823 47.6271 26.001 48.5579 25.5009C49.0955 26.1305 49.579 26.8137 49.9856 27.5415C49.5428 27.604 49.0955 27.6397 48.6437 27.6397H28.4786C28.0223 27.6397 27.575 27.5996 27.1322 27.5415C27.5478 26.8092 28.0313 26.1216 28.578 25.4875ZM51.9149 20.9062C51.9782 20.54 52.0189 20.165 52.0189 19.781C52.0189 19.522 52.0008 19.2719 51.9692 19.0219C52.0686 19.0353 52.168 19.0531 52.2674 19.0531H54.0973C53.8533 19.1067 53.6183 19.2228 53.4286 19.4103L51.9104 20.9107L51.9149 20.9062ZM52.5294 16.8161V16.6464H56.2389V16.8161H52.5294ZM49.7597 19.7765C49.7597 20.8169 49.3802 21.7724 48.7521 22.5137C48.725 22.4913 48.6979 22.4646 48.6708 22.4422C49.2808 21.7189 49.6513 20.7901 49.6513 19.7765C49.6513 18.169 48.7205 16.7714 47.3695 16.0793H47.5955C48.8877 16.8205 49.7642 18.1958 49.7642 19.7765H49.7597ZM43.2805 16.0793H43.5064C42.404 16.6464 41.5816 17.6778 41.315 18.9102C41.2789 18.9058 41.2428 18.8968 41.2066 18.8924C41.4641 17.6912 42.2323 16.6776 43.2805 16.0793ZM29.7979 16.0793C28.4425 16.7714 27.5162 18.169 27.5162 19.7765C27.5162 20.7812 27.8777 21.701 28.4741 22.4199C28.447 22.4422 28.4199 22.469 28.3928 22.4913C27.7783 21.7546 27.4033 20.808 27.4033 19.7765C27.4033 18.1958 28.2753 16.8205 29.572 16.0793H29.7979ZM24.8143 19.0487C24.9453 19.0487 25.0718 19.0353 25.1983 19.0085C25.1667 19.263 25.1486 19.5175 25.1486 19.7765C25.1486 19.9998 25.1622 20.2186 25.1848 20.4373L24.1365 19.4014C23.9468 19.2139 23.7118 19.0933 23.4678 19.0442H24.8143V19.0487ZM20.8427 16.8161V16.6464H24.5522V16.8161H20.8427ZM23.2464 26.1528C23.0612 26.0412 22.885 25.9251 22.7088 25.8001H23.6034L23.2464 26.1528ZM48.1286 13.8467C47.3063 13.4805 46.3981 13.2707 45.4357 13.2707C44.6947 13.2707 43.9854 13.3957 43.3212 13.6234L44.2655 12.6902H48.6437C50.3381 12.6902 51.933 13.1099 53.3337 13.8467H48.1286ZM38.9565 18.6691C38.8255 18.6691 38.6944 18.6602 38.5589 18.6602C38.4414 18.6602 38.3239 18.6647 38.2065 18.6691C38.0393 17.7225 37.6688 16.8428 37.1356 16.0793H40.0273C39.4942 16.8428 39.1237 17.7225 38.9565 18.6691ZM31.7273 13.2751C30.7694 13.2751 29.8567 13.485 29.0344 13.8511H23.7841C25.1848 13.1144 26.7797 12.6947 28.4741 12.6947H32.9743L33.9683 13.677C33.268 13.4225 32.5134 13.2796 31.7227 13.2796L31.7273 13.2751ZM38.4776 49.0728C38.4776 49.0282 38.5137 48.988 38.5634 48.988C38.6131 48.988 38.6493 49.0237 38.6493 49.0728V52.5691C38.6493 52.6628 38.4776 52.6628 38.4776 52.5691V49.0728ZM46.6963 44.7951H46.6105C46.7099 44.7371 46.8048 44.6746 46.8996 44.612C46.9629 44.5719 47.0262 44.5272 47.0894 44.487C47.2747 44.362 47.4554 44.237 47.6361 44.1075C47.6994 44.0584 47.7672 44.0137 47.8304 43.9646C48.0608 43.7904 48.2868 43.6118 48.5082 43.4288C48.5172 43.4198 48.5262 43.4154 48.5353 43.4064C48.7476 43.2278 48.9509 43.0403 49.1497 42.8528C49.2085 42.7947 49.2672 42.7411 49.326 42.6831C49.4841 42.5268 49.6422 42.3705 49.7913 42.2098C49.841 42.1562 49.8907 42.1071 49.9404 42.0535C50.1347 41.8436 50.32 41.6293 50.5007 41.406C50.5323 41.3658 50.564 41.3256 50.5956 41.2855C50.7447 41.1024 50.8893 40.9104 51.0248 40.7184C51.0745 40.6469 51.1242 40.58 51.1739 40.5085C51.305 40.321 51.436 40.129 51.558 39.9325C51.5806 39.8923 51.6077 39.8566 51.6348 39.8209V45.4783C50.0624 45.0407 48.4042 44.8041 46.6918 44.8041L46.6963 44.7951ZM54.775 2.30409C54.8518 2.22818 54.9422 2.21032 55.0371 2.25051C55.1365 2.29069 55.1862 2.3666 55.1862 2.47377V12.3374C53.2885 11.1497 51.0474 10.4576 48.6392 10.4576H46.5201L54.7705 2.30409H54.775ZM41.0711 12.6902L38.6222 15.1103L36.1732 12.6902H41.0711ZM22.2072 2.25051C22.3066 2.21032 22.397 2.22818 22.4738 2.30409L30.7242 10.4576H28.4831C26.1291 10.4576 23.9287 11.1184 22.0626 12.2615V2.47377C22.0626 2.3666 22.1123 2.29516 22.2118 2.25051H22.2072ZM25.483 39.8119C25.5101 39.8521 25.5372 39.8878 25.5598 39.928C25.6818 40.12 25.8083 40.312 25.9393 40.4996C25.989 40.571 26.0433 40.6425 26.093 40.7139C26.2285 40.9015 26.3686 41.0845 26.5132 41.2676C26.5493 41.3122 26.5809 41.3569 26.6171 41.4016C26.7978 41.6203 26.9831 41.8347 27.1728 42.0445C27.227 42.1026 27.2813 42.1562 27.331 42.2142C27.4801 42.3705 27.6292 42.5268 27.7828 42.6741C27.846 42.7367 27.9093 42.7947 27.9726 42.8572C28.1623 43.0403 28.3611 43.2144 28.5599 43.3886C28.578 43.402 28.5916 43.4198 28.6096 43.4332C28.8265 43.6163 29.0524 43.7904 29.2783 43.9601C29.3461 44.0137 29.4139 44.0628 29.4862 44.1119C29.6579 44.237 29.8341 44.362 30.0148 44.4781C30.0374 44.4915 30.0555 44.5093 30.0781 44.5227C30.0013 44.5138 29.929 44.5004 29.8522 44.5004C29.4455 44.5004 29.066 44.612 28.7361 44.7951H28.6051C27.5388 44.7951 26.4951 44.8889 25.4785 45.063V39.8119H25.483ZM15.1316 36.0344C15.6331 36.0344 16.0398 36.4362 16.0398 36.9319V37.5793C15.7506 37.4945 15.4479 37.4454 15.1316 37.4454C14.8153 37.4454 14.5126 37.4945 14.2234 37.5793V36.9319C14.2234 36.4362 14.6301 36.0344 15.1316 36.0344ZM16.0398 40.58C16.0398 41.0756 15.6331 41.4775 15.1316 41.4775C14.6301 41.4775 14.2234 41.0756 14.2234 40.58C14.2234 40.0843 14.6301 39.6824 15.1316 39.6824C15.6331 39.6824 16.0398 40.0843 16.0398 40.58ZM8.49425 58.3381C5.05584 58.3381 2.25902 55.5742 2.25902 52.1761C2.25902 48.7781 5.05584 46.0141 8.49425 46.0141H12.7008C13.5412 46.0141 14.2234 45.3399 14.2234 44.5093V43.5806C14.5126 43.6654 14.8153 43.7145 15.1316 43.7145C15.4479 43.7145 15.7506 43.6654 16.0398 43.5806V44.5093C16.0398 46.3267 14.5442 47.8091 12.7008 47.8091H8.49425C6.0589 47.8091 4.07537 49.7694 4.07537 52.1761C4.07537 54.5829 6.0589 56.5431 8.49425 56.5431H11.4673C11.2459 57.1281 11.0516 57.7264 10.8889 58.3381H8.48973H8.49425ZM13.9072 56.5431H16.5323C17.0338 56.5431 17.4404 56.945 17.4404 57.4406C17.4404 57.9363 17.0338 58.3381 16.5323 58.3381H13.2384C13.4237 57.7219 13.6451 57.1236 13.9026 56.5431H13.9072ZM12.6059 61.7674C12.633 61.3656 12.6827 60.9637 12.7414 60.5707H16.5323C18.2808 60.5707 19.6996 59.1642 19.6996 57.4406C19.6996 55.7171 18.2763 54.3105 16.5323 54.3105H15.1226C17.0248 51.3947 19.8668 49.1353 23.2238 47.952V61.7719H12.6059V61.7674ZM25.483 61.7674V47.3314C26.1472 47.2019 26.8249 47.117 27.5162 47.0679V50.3141C27.5162 51.5912 28.569 52.6316 29.8612 52.6316C31.1534 52.6316 32.2062 51.5912 32.2062 50.3141V47.0233H37.4881C36.738 47.4117 36.2184 48.1753 36.2184 49.0683V52.5646C36.2184 53.8417 37.2712 54.8821 38.5634 54.8821C39.8556 54.8821 40.9084 53.8417 40.9084 52.5646V49.0683C40.9084 48.1753 40.3888 47.4073 39.6388 47.0233H43.8724C43.8634 47.1036 43.8498 47.1796 43.8498 47.2555V50.7517C43.8498 52.0288 44.9026 53.0692 46.1948 53.0692C47.487 53.0692 48.5398 52.0288 48.5398 50.7517V47.2555C48.5398 47.2108 48.5307 47.1706 48.5262 47.126C49.6016 47.2465 50.6453 47.4743 51.6438 47.7957V55.5072C51.3999 55.4759 51.1468 55.4491 50.8938 55.4491C48.4404 55.4491 46.3574 57.0388 45.6345 59.2312C44.9161 57.0388 42.8287 55.4491 40.3752 55.4491C37.3254 55.4491 34.8449 57.9005 34.8449 60.9146V61.763H25.483V61.7674ZM37.0995 61.7674V60.919C37.0995 59.1374 38.5679 57.6862 40.3707 57.6862C42.1735 57.6862 43.642 59.1374 43.642 60.919V61.7674H37.0995ZM47.618 61.7674V60.919C47.618 59.1374 49.0865 57.6862 50.8893 57.6862C51.1468 57.6862 51.3999 57.7175 51.6393 57.7755V61.7674H47.618ZM53.8985 61.7674V59.6554C54.0656 60.0439 54.1605 60.4725 54.1605 60.919V61.7674H53.8985ZM56.4197 61.7674V60.919C56.4197 59.0035 55.4121 57.3156 53.8985 56.3422V48.7201C58.8189 51.1759 62.2979 56.0564 62.7001 61.7674H56.4197Z" fill="#2C2A26"/>
<path d="M35.2876 54.824C35.2876 53.547 34.2349 52.5066 32.9426 52.5066C31.6504 52.5066 30.5977 53.547 30.5977 54.824V58.3203C30.5977 59.5974 31.6504 60.6378 32.9426 60.6378C34.2349 60.6378 35.2876 59.5974 35.2876 58.3203V54.824ZM33.0285 58.3203C33.0285 58.4141 32.8568 58.4141 32.8568 58.3203V54.824C32.8568 54.7794 32.8929 54.7392 32.9426 54.7392C32.9923 54.7392 33.0285 54.7749 33.0285 54.824V58.3203Z" fill="#2C2A26"/>
<path d="M28.6098 45.9114H46.6965C56.1758 45.9114 63.8704 53.5156 63.8704 62.8837H11.4358C11.4358 53.5156 19.1304 45.9114 28.6098 45.9114Z" fill="#E58115"/>
<path d="M38.559 45.9471C31.0361 45.9471 24.8822 40.1691 24.3851 32.8595C24.3626 33.1765 24.3535 33.4936 24.3535 33.8151V62.8792H52.7735V33.8151C52.7735 33.4936 52.76 33.1765 52.7419 32.8595C52.2449 40.1691 46.0865 45.9471 38.568 45.9471H38.559Z" fill="#FFAB2E"/>
<path d="M38.5591 19.7764C31.0362 19.7764 24.8823 25.5544 24.3853 32.8639C24.8823 40.1735 31.0407 45.9515 38.5591 45.9515C46.082 45.9515 52.2359 40.1735 52.733 32.8639C52.2359 25.5544 46.0775 19.7764 38.5591 19.7764Z" fill="#E58115"/>
<path d="M56.3204 14.9629H40.3708L53.9754 1.51366C54.8384 0.660806 56.3159 1.26361 56.3159 2.47369V14.9629H56.3204Z" fill="#F7941E"/>
<path d="M20.9287 14.9629H36.8782L23.2692 1.51366C22.4062 0.660806 20.9287 1.26361 20.9287 2.47369V14.9629Z" fill="#F7941E"/>
<path d="M48.6438 11.5739H28.4787C22.3351 11.5739 17.3547 16.4958 17.3547 22.5672C17.3547 28.6387 22.3351 33.5606 28.4787 33.5606H48.6438C54.7875 33.5606 59.7678 28.6387 59.7678 22.5672C59.7678 16.4958 54.7875 11.5739 48.6438 11.5739Z" fill="#FFAB2E"/>
<path d="M48.6438 28.756H28.4787C23.1698 28.756 18.7328 25.0811 17.6258 20.1649C17.4496 20.9374 17.3547 21.7411 17.3547 22.5672C17.3547 28.6399 22.3339 33.5606 28.4787 33.5606H48.6438C54.7887 33.5606 59.7678 28.6399 59.7678 22.5672C59.7678 21.7411 59.673 20.9374 59.4967 20.1649C58.3898 25.0811 53.9483 28.756 48.6438 28.756Z" fill="#F7941E"/>
<path d="M31.7275 25.1659C34.7394 25.1659 37.1811 22.7529 37.1811 19.7764C37.1811 16.7998 34.7394 14.3868 31.7275 14.3868C28.7156 14.3868 26.2739 16.7998 26.2739 19.7764C26.2739 22.7529 28.7156 25.1659 31.7275 25.1659Z" fill="white"/>
<path d="M31.7276 22.8261C33.4319 22.8261 34.8136 21.4606 34.8136 19.7763C34.8136 18.092 33.4319 16.7266 31.7276 16.7266C30.0232 16.7266 28.6416 18.092 28.6416 19.7763C28.6416 21.4606 30.0232 22.8261 31.7276 22.8261Z" fill="black"/>
<path d="M45.4357 25.1659C48.4477 25.1659 50.8893 22.7529 50.8893 19.7764C50.8893 16.7998 48.4477 14.3868 45.4357 14.3868C42.4238 14.3868 39.9822 16.7998 39.9822 19.7764C39.9822 22.7529 42.4238 25.1659 45.4357 25.1659Z" fill="white"/>
<path d="M40.4161 21.2856H36.7066C35.5787 21.2856 34.6643 22.1893 34.6643 23.3039V23.3084C34.6643 24.4231 35.5787 25.3267 36.7066 25.3267H40.4161C41.544 25.3267 42.4583 24.4231 42.4583 23.3084V23.3039C42.4583 22.1893 41.544 21.2856 40.4161 21.2856Z" fill="#FF99B6"/>
<path d="M40.4116 24.4425H36.7066C35.7306 24.4425 34.9173 23.7683 34.714 22.8618C34.6824 23.0047 34.6643 23.1521 34.6643 23.3039C34.6643 24.4202 35.5815 25.3222 36.7066 25.3222H40.4116C41.5411 25.3222 42.4538 24.4157 42.4538 23.3039C42.4538 23.1521 42.4357 23.0047 42.4041 22.8618C42.2008 23.7638 41.383 24.4425 40.4116 24.4425Z" fill="#DD809F"/>
<path d="M40.9131 21.5536H39.4989C39.3392 21.5536 39.2097 21.6815 39.2097 21.8394V22.0671C39.2097 22.2249 39.3392 22.3529 39.4989 22.3529H40.9131C41.0728 22.3529 41.2023 22.2249 41.2023 22.0671V21.8394C41.2023 21.6815 41.0728 21.5536 40.9131 21.5536Z" fill="#DD809F"/>
<path d="M45.4358 22.8262C47.1402 22.8262 48.5218 21.4608 48.5218 19.7764C48.5218 18.0921 47.1402 16.7267 45.4358 16.7267C43.7315 16.7267 42.3499 18.0921 42.3499 19.7764C42.3499 21.4608 43.7315 22.8262 45.4358 22.8262Z" fill="black"/>
<path d="M54.2313 20.1976L50.1993 24.1822C50.1111 24.2694 50.1111 24.4108 50.1993 24.498L50.3239 24.6211C50.4121 24.7083 50.5552 24.7083 50.6434 24.6211L54.6754 20.6365C54.7636 20.5493 54.7636 20.4079 54.6754 20.3207L54.5508 20.1976C54.4625 20.1104 54.3195 20.1104 54.2313 20.1976Z" fill="white"/>
<path d="M54.6729 28.0815L50.6409 24.0968C50.5527 24.0096 50.4097 24.0096 50.3215 24.0968L50.1969 24.22C50.1086 24.3072 50.1086 24.4485 50.1969 24.5357L54.2288 28.5203C54.3171 28.6075 54.4601 28.6075 54.5483 28.5203L54.6729 28.3972C54.7611 28.31 54.7611 28.1686 54.6729 28.0815Z" fill="white"/>
<path d="M56.0945 24.063H50.3924C50.2676 24.063 50.1665 24.1629 50.1665 24.2862V24.4604C50.1665 24.5837 50.2676 24.6837 50.3924 24.6837H56.0945C56.2193 24.6837 56.3204 24.5837 56.3204 24.4604V24.2862C56.3204 24.1629 56.2193 24.063 56.0945 24.063Z" fill="white"/>
<path d="M22.8957 20.6312L26.9277 24.6158C27.0159 24.703 27.1589 24.703 27.2471 24.6158L27.3717 24.4927C27.46 24.4055 27.46 24.2641 27.3717 24.1769L23.3398 20.1923C23.2516 20.1051 23.1085 20.1051 23.0203 20.1923L22.8957 20.3155C22.8075 20.4026 22.8075 20.544 22.8957 20.6312Z" fill="white"/>
<path d="M23.3373 28.5164L27.3693 24.5318C27.4575 24.4446 27.4575 24.3032 27.3693 24.216L27.2447 24.0929C27.1565 24.0057 27.0134 24.0057 26.9252 24.0929L22.8932 28.0775C22.805 28.1647 22.805 28.3061 22.8932 28.3933L23.0178 28.5164C23.1061 28.6036 23.2491 28.6036 23.3373 28.5164Z" fill="white"/>
<path d="M21.4707 24.6837H27.1728C27.2975 24.6837 27.3987 24.5838 27.3987 24.4605V24.2863C27.3987 24.163 27.2975 24.0631 27.1728 24.0631H21.4707C21.3459 24.0631 21.2448 24.163 21.2448 24.2863V24.4605C21.2448 24.5838 21.3459 24.6837 21.4707 24.6837Z" fill="white"/>
<path d="M16.5325 59.4544H8.49444C4.4325 59.4544 1.12964 56.1903 1.12964 52.1761C1.12964 48.1618 4.4325 44.8978 8.49444 44.8978H12.701C12.9178 44.8978 13.094 44.7236 13.094 44.5093V40.5844C13.094 39.4725 14.0067 38.5706 15.1318 38.5706C16.2568 38.5706 17.1695 39.4725 17.1695 40.5844V44.5093C17.1695 46.9428 15.1634 48.9254 12.701 48.9254H8.49444C6.68261 48.9254 5.20513 50.3855 5.20513 52.1761C5.20513 53.9666 6.68261 55.4268 8.49444 55.4268H16.5325C17.6575 55.4268 18.5702 56.3287 18.5702 57.4406C18.5702 58.5524 17.6575 59.4544 16.5325 59.4544Z" fill="#E58115"/>
<path d="M15.1317 42.5937C14.0067 42.5937 13.094 41.6917 13.094 40.5799V36.9318C13.094 35.8199 14.0067 34.918 15.1317 34.918C16.2568 34.918 17.1695 35.8199 17.1695 36.9318V40.5799C17.1695 41.6917 16.2568 42.5937 15.1317 42.5937Z" fill="#FFAB2E"/>
<path d="M40.371 56.5698C42.8019 56.5698 44.7718 58.5167 44.7718 60.9189V62.8836H35.9702V60.9189C35.9702 58.5167 37.9402 56.5698 40.371 56.5698Z" fill="#FFC67B"/>
<path d="M50.8896 56.5698C53.3204 56.5698 55.2904 58.5167 55.2904 60.9189V62.8836H46.4888V60.9189C46.4888 58.5167 48.4587 56.5698 50.8896 56.5698Z" fill="#FFC67B"/>
<path d="M31.0768 46.8178C31.0768 46.1545 30.5327 45.6167 29.8614 45.6167C29.1902 45.6167 28.646 46.1545 28.646 46.8178V50.3141C28.646 50.9775 29.1902 51.5153 29.8614 51.5153C30.5327 51.5153 31.0768 50.9775 31.0768 50.3141V46.8178Z" fill="#E58115"/>
<path d="M34.1584 54.8239C34.1584 54.1606 33.6142 53.6228 32.943 53.6228C32.2717 53.6228 31.7275 54.1606 31.7275 54.8239V58.3202C31.7275 58.9836 32.2717 59.5214 32.943 59.5214C33.6142 59.5214 34.1584 58.9836 34.1584 58.3202V54.8239Z" fill="#E58115"/>
<path d="M47.4059 47.2643C47.4059 46.6009 46.8618 46.0631 46.1905 46.0631C45.5193 46.0631 44.9751 46.6009 44.9751 47.2643V50.7605C44.9751 51.4239 45.5193 51.9617 46.1905 51.9617C46.8618 51.9617 47.4059 51.4239 47.4059 50.7605V47.2643Z" fill="#E58115"/>
<path d="M39.779 49.0727C39.779 48.4094 39.2348 47.8716 38.5636 47.8716C37.8923 47.8716 37.3481 48.4094 37.3481 49.0727V52.569C37.3481 53.2324 37.8923 53.7701 38.5636 53.7701C39.2348 53.7701 39.779 53.2324 39.779 52.569V49.0727Z" fill="#E58115"/>
<path d="M25.6819 17.075V16.3874C25.6819 15.9139 25.2935 15.53 24.8144 15.53H20.5807C20.1016 15.53 19.7132 15.9139 19.7132 16.3874V17.075C19.7132 17.5485 20.1016 17.9323 20.5807 17.9323H24.8144C25.2935 17.9323 25.6819 17.5485 25.6819 17.075Z" fill="#E58115"/>
<path d="M57.3687 17.075V16.3874C57.3687 15.9139 56.9803 15.53 56.5011 15.53H52.2675C51.7884 15.53 51.4 15.9139 51.4 16.3874V17.075C51.4 17.5485 51.7884 17.9323 52.2675 17.9323H56.5011C56.9803 17.9323 57.3687 17.5485 57.3687 17.075Z" fill="#E58115"/>
</g>
<defs>
<clipPath id="clip0_403_1428">
<rect width="65" height="64" fill="white"/>
</clipPath>
</defs>
</svg>
