<svg width="41" height="61" viewBox="0 0 41 61" fill="none" xmlns="http://www.w3.org/2000/svg">
<g clip-path="url(#clip0_403_1236)">
<path d="M35.706 54.9766H5.29424C5.01236 54.9766 4.78174 54.7405 4.78174 54.452V39.4302C4.78174 39.278 4.84836 39.1311 4.96111 39.0314L14.7499 30.5L4.96111 21.9686C4.84836 21.869 4.78174 21.722 4.78174 21.5699V6.54812C4.78174 6.25955 5.01236 6.02344 5.29424 6.02344H35.7111C35.993 6.02344 36.2236 6.25955 36.2236 6.54812V21.5699C36.2236 21.722 36.157 21.869 36.0442 21.9686L26.2555 30.5L36.0442 39.0314C36.157 39.1311 36.2236 39.278 36.2236 39.4302V54.452C36.2236 54.7405 35.993 54.9766 35.7111 54.9766H35.706ZM5.80674 53.9273H35.1986V39.6716L25.128 30.8988C25.0152 30.7991 24.9486 30.6522 24.9486 30.5C24.9486 30.3479 25.0152 30.201 25.128 30.1013L35.1986 21.3285V7.07281H5.80674V21.3285L15.8774 30.1013C15.9901 30.201 16.0567 30.3479 16.0567 30.5C16.0567 30.6522 15.9901 30.7991 15.8774 30.8988L5.80674 39.6716V53.9273Z" fill="#2C2A26"/>
<path d="M9.90649 49.7297V41.6128L20.4999 32.3835L31.0932 41.6128V49.7297H9.90649Z" fill="#2C2A26"/>
<path d="M31.0933 50.2544H9.90654C9.62467 50.2544 9.39404 50.0183 9.39404 49.7297V41.6128C9.39404 41.4606 9.46067 41.3137 9.57342 41.214L20.1668 31.9796C20.3564 31.8117 20.6383 31.8117 20.833 31.9796L31.4264 41.214C31.5392 41.3137 31.6058 41.4606 31.6058 41.6128V49.7297C31.6058 50.0183 31.3752 50.2544 31.0933 50.2544ZM10.419 49.205H30.5859V41.8542L20.505 33.0709L10.4242 41.8542V49.205H10.419Z" fill="#2C2A26"/>
<path d="M20.4999 29.1463C20.382 29.1463 20.2642 29.1044 20.1668 29.0204L9.57342 19.7859C9.46067 19.6863 9.39404 19.5393 9.39404 19.3872V11.2703C9.39404 10.9817 9.62467 10.7456 9.90654 10.7456C10.1884 10.7456 10.419 10.9817 10.419 11.2703V19.1458L20.4999 27.9291L30.5808 19.1458V11.2703C30.5808 10.9817 30.8114 10.7456 31.0933 10.7456C31.3752 10.7456 31.6058 10.9817 31.6058 11.2703V19.3872C31.6058 19.5393 31.5392 19.6863 31.4264 19.7859L20.833 29.0204C20.7357 29.1044 20.6178 29.1463 20.4999 29.1463Z" fill="#2C2A26"/>
<path d="M37.5457 0.524658H3.4542C1.82952 0.524658 0.512451 1.87304 0.512451 3.53636C0.512451 5.19967 1.82952 6.54805 3.4542 6.54805H37.5457C39.1704 6.54805 40.4875 5.19967 40.4875 3.53636C40.4875 1.87304 39.1704 0.524658 37.5457 0.524658Z" fill="#FDCE79"/>
<path d="M37.5457 7.07277H3.45425C1.54775 7.07277 0 5.48822 0 3.53638C0 1.58455 1.54775 0 3.45425 0H37.5457C39.4523 0 41 1.58455 41 3.53638C41 5.48822 39.4523 7.07277 37.5457 7.07277ZM3.45425 1.04937C2.11662 1.04937 1.025 2.16695 1.025 3.53638C1.025 4.90581 2.11662 6.0234 3.45425 6.0234H37.5457C38.8834 6.0234 39.975 4.90581 39.975 3.53638C39.975 2.16695 38.8834 1.04937 37.5457 1.04937H3.45425Z" fill="#2C2A26"/>
<path d="M37.5457 54.4519H3.4542C1.82952 54.4519 0.512451 55.8003 0.512451 57.4636C0.512451 59.1269 1.82952 60.4753 3.4542 60.4753H37.5457C39.1704 60.4753 40.4875 59.1269 40.4875 57.4636C40.4875 55.8003 39.1704 54.4519 37.5457 54.4519Z" fill="#FDCE79"/>
<path d="M37.5457 61H3.45425C1.54775 61 0 59.4155 0 57.4636C0 55.5118 1.54775 53.9272 3.45425 53.9272H37.5457C39.4523 53.9272 41 55.5118 41 57.4636C41 59.4155 39.4523 61 37.5457 61ZM3.45425 54.9766C2.11662 54.9766 1.025 56.0942 1.025 57.4636C1.025 58.8331 2.11662 59.9506 3.45425 59.9506H37.5457C38.8834 59.9506 39.975 58.8331 39.975 57.4636C39.975 56.0942 38.8834 54.9766 37.5457 54.9766H3.45425Z" fill="#2C2A26"/>
</g>
<defs>
<clipPath id="clip0_403_1236">
<rect width="41" height="61" fill="white"/>
</clipPath>
</defs>
</svg>
