<?xml version="1.0" encoding="UTF-8" standalone="no"?>
<!DOCTYPE svg PUBLIC "-//W3C//DTD SVG 1.1//EN" "http://www.w3.org/Graphics/SVG/1.1/DTD/svg11.dtd">
<svg width="100%" height="100%" viewBox="0 0 1080 1080" version="1.1" xmlns="http://www.w3.org/2000/svg" xmlns:xlink="http://www.w3.org/1999/xlink" xml:space="preserve" xmlns:serif="http://www.serif.com/" style="fill-rule:evenodd;clip-rule:evenodd;stroke-linecap:round;stroke-linejoin:round;stroke-miterlimit:10;">
    <g id="Artboard1" transform="matrix(1,0,0,0.5625,0,0)">
        <rect x="0" y="0" width="1080" height="1920" style="fill:none;"/>
        <g transform="matrix(6.34867,0,0,11.2865,-33670.4,-2166.05)">
            <path d="M5340.77,286.944L5340.77,286.945L5331,277.174C5317.43,263.61 5317.43,241.416 5331,227.852C5344.56,214.289 5366.76,214.289 5380.32,227.852L5390.09,237.623L5390.09,237.624L5439.41,286.944L5390.09,336.264L5340.77,286.944ZM5399.86,227.852L5390.09,237.623L5439.41,286.945L5449.18,277.173C5462.75,263.61 5462.75,241.415 5449.18,227.852C5435.62,214.288 5413.42,214.288 5399.86,227.852Z" style="fill:rgb(251,70,104);fill-rule:nonzero;"/>
        </g>
        <g transform="matrix(0.381021,0.249756,-0.140488,0.677371,-1135.24,-63.3509)">
            <path d="M5340.77,286.944L5340.77,286.945L5331,277.174C5317.43,263.61 5317.43,241.416 5331,227.852C5344.56,214.289 5366.76,214.289 5380.32,227.852L5390.09,237.623L5390.09,237.624L5439.41,286.944L5390.09,336.264L5340.77,286.944ZM5399.86,227.852L5390.09,237.623L5439.41,286.945L5449.18,277.173C5462.75,263.61 5462.75,241.415 5449.18,227.852C5435.62,214.288 5413.42,214.288 5399.86,227.852Z" style="fill:rgb(251,70,104);fill-rule:nonzero;"/>
        </g>
        <g transform="matrix(0.623394,0.408629,-0.229854,1.10826,-2288.86,-1455.88)">
            <path d="M5340.77,286.944L5340.77,286.945L5331,277.174C5317.43,263.61 5317.43,241.416 5331,227.852C5344.56,214.289 5366.76,214.289 5380.32,227.852L5390.09,237.623L5390.09,237.624L5439.41,286.944L5390.09,336.264L5340.77,286.944ZM5399.86,227.852L5390.09,237.623L5439.41,286.945L5449.18,277.173C5462.75,263.61 5462.75,241.415 5449.18,227.852C5435.62,214.288 5413.42,214.288 5399.86,227.852Z" style="fill:rgb(251,70,104);fill-rule:nonzero;"/>
        </g>
        <g transform="matrix(0.6005,-0.505502,0.284345,1.06756,-3242.58,3325.72)">
            <path d="M5340.77,286.944L5340.77,286.945L5331,277.174C5317.43,263.61 5317.43,241.416 5331,227.852C5344.56,214.289 5366.76,214.289 5380.32,227.852L5390.09,237.623L5390.09,237.624L5439.41,286.944L5390.09,336.264L5340.77,286.944ZM5399.86,227.852L5390.09,237.623L5439.41,286.945L5449.18,277.173C5462.75,263.61 5462.75,241.415 5449.18,227.852C5435.62,214.288 5413.42,214.288 5399.86,227.852Z" style="fill:rgb(251,70,104);fill-rule:nonzero;"/>
        </g>
        <g transform="matrix(2.02646,-0.9094,0.511538,3.6026,-349.786,779.999)">
            <g transform="matrix(0,-1,-1,0,400.883,107.42)">
                <path d="M-17.953,-17.953C-27.868,-17.953 -35.908,-9.916 -35.908,0.001C-35.908,9.916 -27.868,17.953 -17.953,17.953C-8.038,17.953 0.001,9.916 0.001,0.001C0.001,-9.916 -8.038,-17.953 -17.953,-17.953" style="fill:rgb(250,204,162);fill-rule:nonzero;"/>
            </g>
            <g transform="matrix(0,-1,-1,0,400.883,115.145)">
                <path d="M-10.228,-10.228C-15.877,-10.228 -20.456,-5.649 -20.456,0C-20.456,5.649 -15.877,10.228 -10.228,10.228C-4.579,10.228 0,5.649 0,0C0,-5.649 -4.579,-10.228 -10.228,-10.228" style="fill:rgb(250,168,162);fill-rule:nonzero;"/>
            </g>
            <g transform="matrix(0,-1,-1,0,261.348,107.42)">
                <path d="M-17.953,-17.953C-27.868,-17.953 -35.908,-9.916 -35.908,0.001C-35.908,9.916 -27.868,17.953 -17.953,17.953C-8.038,17.953 0.001,9.916 0.001,0.001C0.001,-9.916 -8.038,-17.953 -17.953,-17.953" style="fill:rgb(250,204,162);fill-rule:nonzero;"/>
            </g>
            <g transform="matrix(0,-1,-1,0,261.348,115.145)">
                <path d="M-10.228,-10.228C-15.877,-10.228 -20.456,-5.649 -20.456,0C-20.456,5.649 -15.877,10.228 -10.228,10.228C-4.579,10.228 0,5.649 0,0C0,-5.649 -4.579,-10.228 -10.228,-10.228" style="fill:rgb(250,168,162);fill-rule:nonzero;"/>
            </g>
            <g transform="matrix(1,0,0,1,336.22,25.6643)">
                <path d="M0,177.854L-10.209,177.854C-45.922,177.854 -74.872,148.903 -74.872,113.191L-74.872,64.663C-74.872,28.95 -45.922,0 -10.209,0L0,0C35.712,0 64.663,28.95 64.663,64.663L64.663,113.191C64.663,148.903 35.712,177.854 0,177.854" style="fill:rgb(248,194,158);fill-rule:nonzero;"/>
            </g>
            <g transform="matrix(1,0,0,1,339.129,25.6635)">
                <path d="M0,162.213L-16.027,162.213C-50.133,162.213 -77.781,134.565 -77.781,100.459L-77.781,61.755C-77.781,27.649 -50.133,0 -16.027,0L0,0C34.106,0 61.754,27.649 61.754,61.755L61.754,100.459C61.754,134.565 34.106,162.213 0,162.213" style="fill:rgb(250,204,162);fill-rule:nonzero;"/>
            </g>
            <g transform="matrix(1,0,0,1,269.954,62.5658)">
                <path d="M0,79.357C-4.753,79.357 -8.606,75.504 -8.606,70.751L-8.606,8.606C-8.606,3.853 -4.753,0 0,0C4.753,0 8.606,3.853 8.606,8.606L8.606,70.751C8.606,75.504 4.753,79.357 0,79.357" style="fill:rgb(66,33,11);fill-rule:nonzero;"/>
            </g>
            <g transform="matrix(0.105345,-0.994436,-0.994436,-0.105345,376.11,15.696)">
                <path d="M-36.046,-32.429C-56.065,-32.429 -72.293,-16.2 -72.293,3.818C-72.293,23.837 -56.064,40.066 -36.046,40.066C-16.027,40.066 0.201,23.837 0.201,3.818C0.201,-16.2 -16.027,-32.429 -36.046,-32.429" style="fill:rgb(245,159,130);fill-rule:nonzero;"/>
            </g>
            <g transform="matrix(0.105345,-0.994436,-0.994436,-0.105345,309.392,1.19474)">
                <path d="M-53.32,-47.97C-82.933,-47.97 -106.94,-23.964 -106.939,5.648C-106.939,35.262 -82.933,59.268 -53.32,59.267C-23.707,59.268 0.299,35.261 0.298,5.648C0.299,-23.964 -23.708,-47.971 -53.32,-47.97" style="fill:rgb(66,33,11);fill-rule:nonzero;"/>
            </g>
            <g transform="matrix(0.10535,-0.994435,-0.994435,-0.10535,286.687,4.38114)">
                <path d="M-23.141,-20.818C-35.992,-20.818 -46.411,-10.4 -46.41,2.451C-46.41,15.303 -35.992,25.722 -23.141,25.721C-10.289,25.721 0.13,15.303 0.129,2.451C0.129,-10.4 -10.289,-20.819 -23.141,-20.818" style="fill:rgb(140,98,57);fill-rule:nonzero;"/>
            </g>
            <g transform="matrix(0.105328,-0.994438,-0.994438,-0.105328,272.192,61.0429)">
                <path d="M-10.622,-9.556C-16.52,-9.556 -21.303,-4.773 -21.302,1.126C-21.302,7.024 -16.52,11.806 -10.622,11.806C-4.722,11.806 0.06,7.023 0.06,1.125C0.059,-4.774 -4.723,-9.556 -10.622,-9.556" style="fill:rgb(140,98,57);fill-rule:nonzero;"/>
            </g>
            <g transform="matrix(-0.628685,-0.77766,-0.77766,0.628685,310.416,41.1294)">
                <path d="M-6.713,-14.059C-11.48,-14.059 -15.344,-10.195 -15.345,-5.427C-15.345,-0.66 -11.481,3.204 -6.713,3.205C-1.945,3.205 1.919,-0.66 1.919,-5.427C1.919,-10.195 -1.946,-14.059 -6.713,-14.059" style="fill:rgb(140,98,57);fill-rule:nonzero;"/>
            </g>
            <g transform="matrix(0.105355,-0.994435,-0.994435,-0.105355,406.432,53.7661)">
                <path d="M-23.196,-20.869C-36.078,-20.869 -46.522,-10.426 -46.522,2.457C-46.521,15.339 -36.078,25.783 -23.196,25.783C-10.314,25.783 0.13,15.339 0.13,2.457C0.13,-10.425 -10.313,-20.869 -23.196,-20.869" style="fill:rgb(66,33,11);fill-rule:nonzero;"/>
            </g>
            <g transform="matrix(0.105349,-0.994435,-0.994435,-0.105349,406.496,90.438)">
                <path d="M-12.007,-10.802C-18.675,-10.802 -24.082,-5.396 -24.081,1.272C-24.082,7.941 -18.675,13.347 -12.007,13.346C-5.339,13.347 0.068,7.941 0.067,1.272C0.068,-5.396 -5.339,-10.803 -12.007,-10.802" style="fill:rgb(66,33,11);fill-rule:nonzero;"/>
            </g>
            <g transform="matrix(1,0,0,1,392.907,86.6332)">
                <path d="M0,60.055C-4.405,60.055 -7.976,56.484 -7.976,52.079L-7.976,7.976C-7.976,3.571 -4.405,0 0,0C4.405,0 7.976,3.571 7.976,7.976L7.976,52.079C7.976,56.484 4.405,60.055 0,60.055" style="fill:rgb(66,33,11);fill-rule:nonzero;"/>
            </g>
            <g transform="matrix(-0.628683,-0.777662,-0.777662,0.628683,402.664,85.1299)">
                <path d="M-5.578,-11.682C-9.54,-11.681 -12.751,-8.47 -12.751,-4.509C-12.751,-0.548 -9.54,2.663 -5.578,2.663C-1.617,2.664 1.594,-0.548 1.595,-4.509C1.594,-8.471 -1.618,-11.681 -5.578,-11.682" style="fill:rgb(140,98,57);fill-rule:nonzero;"/>
            </g>
            <g transform="matrix(0.105345,-0.994436,-0.994436,-0.105345,378.574,8.40293)">
                <path d="M-36.046,-32.429C-56.065,-32.429 -72.293,-16.2 -72.293,3.818C-72.293,23.837 -56.064,40.066 -36.046,40.066C-16.027,40.066 0.201,23.837 0.201,3.818C0.201,-16.2 -16.027,-32.429 -36.046,-32.429" style="fill:rgb(66,33,11);fill-rule:nonzero;"/>
            </g>
            <g transform="matrix(0.105328,-0.994438,-0.994438,-0.105328,374.916,17.3653)">
                <path d="M-10.622,-9.556C-16.52,-9.556 -21.303,-4.773 -21.302,1.126C-21.302,7.024 -16.52,11.806 -10.622,11.806C-4.723,11.806 0.06,7.023 0.06,1.125C0.059,-4.774 -4.723,-9.556 -10.622,-9.556" style="fill:rgb(140,98,57);fill-rule:nonzero;"/>
            </g>
            <g transform="matrix(0.707107,-0.707107,-0.707107,-0.707107,406.41,138.603)">
                <circle cx="-1.362" cy="1.363" r="1.927" style="fill:none;stroke:rgb(107,107,107);stroke-width:0.67px;"/>
            </g>
            <g transform="matrix(0.707107,-0.707107,-0.707107,-0.707107,260.702,138.603)">
                <circle cx="-1.362" cy="1.363" r="1.927" style="fill:none;stroke:rgb(107,107,107);stroke-width:0.67px;"/>
            </g>
            <g transform="matrix(0,-1,-1,0,354.506,123.967)">
                <path d="M-7.423,-7.423C-11.522,-7.423 -14.846,-4.1 -14.846,0C-14.846,4.1 -11.522,7.423 -7.423,7.423C-3.324,7.423 0,4.1 0,0C0,-4.1 -3.324,-7.423 -7.423,-7.423" style="fill:rgb(66,33,11);fill-rule:nonzero;"/>
            </g>
            <g transform="matrix(1,0,0,1,362.467,112.739)">
                <path d="M0,11.397L-15.923,11.397C-18.906,11.397 -21.324,8.979 -21.324,5.996L-21.324,5.401C-21.324,2.418 -18.906,0 -15.923,0L0,0C2.983,0 5.401,2.418 5.401,5.401L5.401,5.996C5.401,8.979 2.983,11.397 0,11.397" style="fill:rgb(43,29,26);fill-rule:nonzero;"/>
            </g>
            <g transform="matrix(1,0,0,1,354.928,115.051)">
                <path d="M0,3.621L-7.971,3.621C-8.919,3.621 -9.687,2.853 -9.687,1.905L-9.687,1.716C-9.687,0.769 -8.919,0 -7.971,0L0,0C0.948,0 1.716,0.769 1.716,1.716L1.716,1.905C1.716,2.853 0.948,3.621 0,3.621" style="fill:rgb(83,63,60);fill-rule:nonzero;"/>
            </g>
            <g transform="matrix(0,-1,-1,0,305.012,123.967)">
                <path d="M-7.423,-7.423C-11.522,-7.423 -14.846,-4.1 -14.846,0C-14.846,4.1 -11.522,7.423 -7.423,7.423C-3.324,7.423 0,4.1 0,0C0,-4.1 -3.324,-7.423 -7.423,-7.423" style="fill:rgb(66,33,11);fill-rule:nonzero;"/>
            </g>
            <g transform="matrix(1,0,0,1,312.973,112.739)">
                <path d="M0,11.397L-15.923,11.397C-18.906,11.397 -21.324,8.979 -21.324,5.996L-21.324,5.401C-21.324,2.418 -18.906,0 -15.923,0L0,0C2.983,0 5.401,2.418 5.401,5.401L5.401,5.996C5.401,8.979 2.983,11.397 0,11.397" style="fill:rgb(43,29,26);fill-rule:nonzero;"/>
            </g>
            <g transform="matrix(1,0,0,1,305.434,115.051)">
                <path d="M0,3.621L-7.971,3.621C-8.919,3.621 -9.687,2.853 -9.687,1.905L-9.687,1.716C-9.687,0.769 -8.919,0 -7.971,0L0,0C0.948,0 1.716,0.769 1.716,1.716L1.716,1.905C1.716,2.853 0.948,3.621 0,3.621" style="fill:rgb(83,63,60);fill-rule:nonzero;"/>
            </g>
        </g>
        <g transform="matrix(2.07314,0.471406,-0.265166,3.68558,582.219,381.395)">
            <g transform="matrix(0,1,1,0,90.2365,125.471)">
                <path d="M72.924,-72.924C32.649,-72.924 0,-40.275 0,0C0,40.275 32.649,72.924 72.924,72.924C113.199,72.924 145.848,40.275 145.848,0C145.848,-40.275 113.199,-72.924 72.924,-72.924" style="fill:rgb(83,45,38);fill-rule:nonzero;"/>
            </g>
            <g transform="matrix(1,0,0,1,93.1296,154.494)">
                <path d="M0,134.388L-6.353,134.388C-33.714,134.388 -55.894,112.208 -55.894,84.848L-55.894,49.54C-55.894,22.18 -33.714,0 -6.353,0L0,0C27.36,0 49.54,22.18 49.54,49.54L49.54,84.848C49.54,112.208 27.36,134.388 0,134.388" style="fill:rgb(248,194,158);fill-rule:nonzero;"/>
            </g>
            <g transform="matrix(0,-1,-1,0,37.236,205.505)">
                <path d="M-13.036,-13.036C-20.235,-13.036 -26.072,-7.2 -26.072,0C-26.072,7.199 -20.235,13.036 -13.036,13.036C-5.837,13.036 0,7.199 0,0C0,-7.2 -5.837,-13.036 -13.036,-13.036" style="fill:rgb(250,204,162);fill-rule:nonzero;"/>
            </g>
            <g transform="matrix(0,-1,-1,0,37.2357,211.114)">
                <path d="M-7.427,-7.427C-11.528,-7.427 -14.853,-4.102 -14.853,-0.001C-14.853,4.101 -11.528,7.427 -7.427,7.427C-3.326,7.427 -0.001,4.101 -0.001,-0.001C-0.001,-4.102 -3.326,-7.427 -7.427,-7.427" style="fill:rgb(245,159,130);fill-rule:nonzero;"/>
            </g>
            <g transform="matrix(0,-1,-1,0,142.67,205.505)">
                <path d="M-13.036,-13.036C-20.235,-13.036 -26.072,-7.2 -26.072,0C-26.072,7.199 -20.235,13.036 -13.036,13.036C-5.837,13.036 0,7.199 0,0C0,-7.2 -5.837,-13.036 -13.036,-13.036" style="fill:rgb(250,204,162);fill-rule:nonzero;"/>
            </g>
            <g transform="matrix(0,-1,-1,0,142.67,211.114)">
                <path d="M-7.427,-7.427C-11.528,-7.427 -14.853,-4.102 -14.853,-0.001C-14.853,4.101 -11.528,7.427 -7.427,7.427C-3.326,7.427 -0.001,4.101 -0.001,-0.001C-0.001,-4.102 -3.326,-7.427 -7.427,-7.427" style="fill:rgb(245,159,130);fill-rule:nonzero;"/>
            </g>
            <g transform="matrix(1,0,0,1,93.1296,154.494)">
                <path d="M0,122.569L-6.353,122.569C-33.714,122.569 -55.894,100.389 -55.894,73.029L-55.894,49.54C-55.894,22.18 -33.714,0 -6.353,0L0,0C27.36,0 49.54,22.18 49.54,49.54L49.54,73.029C49.54,100.389 27.36,122.569 0,122.569" style="fill:rgb(250,204,162);fill-rule:nonzero;"/>
            </g>
            <g transform="matrix(0,-1,-1,0,57.5407,170.125)">
                <path d="M-7.183,-7.183C-11.15,-7.183 -14.366,-3.967 -14.366,0C-14.366,3.967 -11.15,7.183 -7.183,7.183C-3.216,7.183 0,3.967 0,0C0,-3.967 -3.216,-7.183 -7.183,-7.183" style="fill:rgb(254,224,183);fill-rule:nonzero;"/>
            </g>
            <g transform="matrix(-0.808075,-0.589079,-0.589079,0.808075,32.5326,205.306)">
                <path d="M-3.649,1.818C-3.649,1.818 -1.888,-0.62 0.15,1.818" style="fill:none;fill-rule:nonzero;stroke:black;stroke-width:0.48px;"/>
            </g>
            <g transform="matrix(0,-1,-1,0,26.3863,216.22)">
                <path d="M-0.774,-0.774C-1.2,-0.774 -1.547,-0.428 -1.547,0C-1.547,0.427 -1.2,0.774 -0.774,0.774C-0.346,0.774 0,0.427 0,0C0,-0.428 -0.346,-0.774 -0.774,-0.774" style="fill-rule:nonzero;"/>
            </g>
            <g transform="matrix(0,-1,-1,0,30.092,207.378)">
                <path d="M-0.774,-0.774C-1.2,-0.774 -1.547,-0.428 -1.547,0C-1.547,0.427 -1.2,0.774 -0.774,0.774C-0.346,0.774 0,0.427 0,0C0,-0.428 -0.346,-0.774 -0.774,-0.774" style="fill-rule:nonzero;"/>
            </g>
            <g transform="matrix(0,-1,-1,0,27.4199,219.649)">
                <path d="M-0.774,-0.774C-1.2,-0.774 -1.547,-0.428 -1.547,0C-1.547,0.427 -1.2,0.774 -0.774,0.774C-0.346,0.774 0,0.427 0,0C0,-0.428 -0.346,-0.774 -0.774,-0.774" style="fill-rule:nonzero;"/>
            </g>
            <g transform="matrix(0,-1,-1,0,28.9669,222.828)">
                <path d="M-0.774,-0.774C-1.2,-0.774 -1.547,-0.428 -1.547,0C-1.547,0.427 -1.2,0.774 -0.774,0.774C-0.346,0.774 0,0.427 0,0C0,-0.428 -0.346,-0.774 -0.774,-0.774" style="fill-rule:nonzero;"/>
            </g>
            <g transform="matrix(0,-1,-1,0,31.639,225.967)">
                <path d="M-0.774,-0.774C-1.2,-0.774 -1.547,-0.428 -1.547,0C-1.547,0.427 -1.2,0.774 -0.774,0.774C-0.346,0.774 0,0.427 0,0C0,-0.428 -0.346,-0.774 -0.774,-0.774" style="fill-rule:nonzero;"/>
            </g>
            <g transform="matrix(0,-1,-1,0,35.1887,227.639)">
                <path d="M-0.774,-0.774C-1.2,-0.774 -1.547,-0.428 -1.547,0C-1.547,0.427 -1.2,0.774 -0.774,0.774C-0.346,0.774 0,0.427 0,0C0,-0.428 -0.346,-0.774 -0.774,-0.774" style="fill-rule:nonzero;"/>
            </g>
            <g transform="matrix(0.412837,-0.910805,-0.910805,-0.412837,30.3264,215.006)">
                <path d="M-1.9,2.947L4.572,2.947" style="fill:none;fill-rule:nonzero;stroke:black;stroke-width:0.48px;"/>
            </g>
            <g transform="matrix(0.707107,-0.707107,-0.707107,-0.707107,147.071,228.521)">
                <circle cx="-1.2" cy="1.2" r="1.698" style="fill:none;stroke:black;stroke-width:0.67px;"/>
            </g>
            <g transform="matrix(0,-1,-1,0,91.6302,80.2043)">
                <path d="M-30.584,-30.584C-47.475,-30.584 -61.168,-16.891 -61.168,0C-61.168,16.891 -47.475,30.584 -30.584,30.584C-13.693,30.584 0,16.891 0,0C0,-16.891 -13.693,-30.584 -30.584,-30.584" style="fill:rgb(83,45,38);fill-rule:nonzero;"/>
            </g>
            <g transform="matrix(0,-1,-1,0,131.539,148.303)">
                <path d="M-30.069,-30.069C-46.675,-30.069 -60.138,-16.606 -60.138,0C-60.138,16.607 -46.675,30.069 -30.069,30.069C-13.462,30.069 0,16.607 0,0C0,-16.606 -13.462,-30.069 -30.069,-30.069" style="fill:rgb(245,159,130);fill-rule:nonzero;"/>
            </g>
            <g transform="matrix(0,-1,-1,0,86.7533,128.208)">
                <path d="M-32.036,-32.036C-49.729,-32.036 -64.072,-17.693 -64.072,0C-64.072,17.693 -49.729,32.036 -32.036,32.036C-14.343,32.036 0,17.693 0,0C0,-17.693 -14.343,-32.036 -32.036,-32.036" style="fill:rgb(245,159,130);fill-rule:nonzero;"/>
            </g>
            <g transform="matrix(0,-1,-1,0,122.273,125.157)">
                <path d="M-20.398,-20.398C-31.663,-20.398 -40.796,-11.266 -40.796,0C-40.796,11.265 -31.663,20.398 -20.398,20.398C-9.133,20.398 0,11.265 0,0C0,-11.266 -9.133,-20.398 -20.398,-20.398" style="fill:rgb(83,45,38);fill-rule:nonzero;"/>
            </g>
            <g transform="matrix(0,-1,-1,0,39.7745,143.084)">
                <path d="M-20.398,-20.398C-31.663,-20.398 -40.796,-11.266 -40.796,0C-40.796,11.265 -31.663,20.398 -20.398,20.398C-9.133,20.398 0,11.265 0,0C0,-11.266 -9.133,-20.398 -20.398,-20.398" style="fill:rgb(83,45,38);fill-rule:nonzero;"/>
            </g>
            <g transform="matrix(0,-1,-1,0,64.723,125.372)">
                <path d="M-22.499,-22.499C-34.925,-22.499 -44.998,-12.426 -44.998,0C-44.998,12.426 -34.925,22.499 -22.499,22.499C-10.073,22.499 0,12.426 0,0C0,-12.426 -10.073,-22.499 -22.499,-22.499" style="fill:rgb(83,45,38);fill-rule:nonzero;"/>
            </g>
            <g transform="matrix(0,-1,-1,0,85.7281,123.77)">
                <path d="M-30.872,-30.872C-47.922,-30.872 -61.744,-17.05 -61.744,0C-61.744,17.05 -47.922,30.872 -30.872,30.872C-13.822,30.872 0,17.05 0,0C0,-17.05 -13.822,-30.872 -30.872,-30.872" style="fill:rgb(83,45,38);fill-rule:nonzero;"/>
            </g>
            <g transform="matrix(-0.707107,-0.707107,-0.707107,0.707107,30.2238,195.14)">
                <path d="M-6.753,-16.303C-12.027,-16.303 -16.302,-12.027 -16.302,-6.754C-16.303,-1.479 -12.027,2.796 -6.753,2.796C-1.479,2.796 2.797,-1.479 2.796,-6.754C2.796,-12.027 -1.479,-16.303 -6.753,-16.303" style="fill:rgb(83,45,38);fill-rule:nonzero;"/>
            </g>
            <g opacity="0.2">
                <g transform="matrix(0,-1,-1,0,86.7537,116.702)">
                    <path d="M-4.227,-4.227C-6.562,-4.227 -8.454,-2.334 -8.454,0C-8.454,2.335 -6.562,4.227 -4.227,4.227C-1.892,4.227 0,2.335 0,0C0,-2.334 -1.892,-4.227 -4.227,-4.227" style="fill:white;fill-rule:nonzero;"/>
                </g>
            </g>
            <g opacity="0.2">
                <g transform="matrix(0,-1,-1,0,33.5229,183.879)">
                    <path d="M-3.713,-3.713C-5.764,-3.713 -7.426,-2.051 -7.426,0C-7.426,2.051 -5.764,3.713 -3.713,3.713C-1.662,3.713 0,2.051 0,0C0,-2.051 -1.662,-3.713 -3.713,-3.713" style="fill:white;fill-rule:nonzero;"/>
                </g>
            </g>
            <g transform="matrix(0,-1,-1,0,63.6512,142.587)">
                <path d="M-29.223,-29.223C-45.362,-29.223 -58.446,-16.14 -58.446,0C-58.446,16.139 -45.362,29.223 -29.223,29.223C-13.084,29.223 0,16.139 0,0C0,-16.14 -13.084,-29.223 -29.223,-29.223" style="fill:rgb(83,45,38);fill-rule:nonzero;"/>
            </g>
            <g opacity="0.2">
                <g transform="matrix(0,-1,-1,0,61.046,156.393)">
                    <path d="M-11.57,-11.57C-17.96,-11.57 -23.14,-6.39 -23.14,0C-23.14,6.39 -17.96,11.57 -11.57,11.57C-5.18,11.57 0,6.39 0,0C0,-6.39 -5.18,-11.57 -11.57,-11.57" style="fill:white;fill-rule:nonzero;"/>
                </g>
            </g>
            <g transform="matrix(1,0,0,1,114.68,222.911)">
                <path d="M0,12.065L-0.178,12.243C-0.945,13.01 -2.187,13.01 -2.954,12.243L-12.421,2.776C-13.188,2.009 -13.188,0.766 -12.421,0L-12.243,-0.178C-11.477,-0.945 -10.234,-0.945 -9.467,-0.178L0,9.289C0.767,10.056 0.767,11.298 0,12.065" style="fill:rgb(43,29,26);fill-rule:nonzero;"/>
            </g>
            <g transform="matrix(1,0,0,1,106.966,223.454)">
                <path d="M0,12.065L0.178,12.243C0.945,13.01 2.187,13.01 2.954,12.243L12.421,2.776C13.188,2.009 13.188,0.766 12.421,0L12.243,-0.178C11.477,-0.945 10.234,-0.945 9.467,-0.178L0,9.289C-0.767,10.056 -0.767,11.298 0,12.065" style="fill:rgb(43,29,26);fill-rule:nonzero;"/>
            </g>
            <g transform="matrix(1,0,0,1,111.517,219.72)">
                <path d="M0,17.315L-0.252,17.315C-1.336,17.315 -2.215,16.436 -2.215,15.352L-2.215,1.963C-2.215,0.879 -1.336,0 -0.252,0L0,0C1.084,0 1.963,0.879 1.963,1.963L1.963,15.352C1.963,16.436 1.084,17.315 0,17.315" style="fill:rgb(43,29,26);fill-rule:nonzero;"/>
            </g>
            <g transform="matrix(-0.232301,-0.972644,-0.972644,0.232301,107.814,224.801)">
                <path d="M-7.702,-9.758C-12.076,-9.758 -15.621,-6.212 -15.621,-1.838C-15.621,2.534 -12.076,6.08 -7.702,6.08C-3.329,6.08 0.217,2.534 0.217,-1.839C0.217,-6.212 -3.329,-9.758 -7.702,-9.758" style="fill:rgb(43,29,26);fill-rule:nonzero;"/>
            </g>
            <g opacity="0.2">
                <g transform="matrix(0,-1,-1,0,100.539,155.231)">
                    <path d="M-3.351,-3.351C-5.202,-3.351 -6.701,-1.851 -6.701,0C-6.701,1.851 -5.202,3.351 -3.351,3.351C-1.5,3.351 0,1.851 0,0C0,-1.851 -1.5,-3.351 -3.351,-3.351" style="fill:white;fill-rule:nonzero;"/>
                </g>
            </g>
            <g transform="matrix(0.105344,-0.994436,-0.994436,-0.105344,144.16,140.628)">
                <path d="M-33.026,-29.712C-51.367,-29.712 -66.236,-14.843 -66.236,3.498C-66.236,21.84 -51.367,36.709 -33.026,36.709C-14.683,36.708 0.185,21.84 0.185,3.498C0.185,-14.844 -14.684,-29.712 -33.026,-29.712" style="fill:rgb(83,45,38);fill-rule:nonzero;"/>
            </g>
            <g opacity="0.2">
                <g transform="matrix(0,-1,-1,0,136.158,155.231)">
                    <path d="M-2.507,-2.507C-3.891,-2.507 -5.014,-1.384 -5.014,0.001C-5.014,1.384 -3.891,2.507 -2.507,2.507C-1.122,2.507 0.001,1.384 0.001,0.001C0.001,-1.384 -1.122,-2.507 -2.507,-2.507" style="fill:white;fill-rule:nonzero;"/>
                </g>
            </g>
            <g opacity="0.2">
                <g transform="matrix(0,-1,-1,0,131.108,136.526)">
                    <path d="M-7.334,-7.334C-11.384,-7.334 -14.668,-4.05 -14.668,0C-14.668,4.051 -11.384,7.334 -7.334,7.334C-3.284,7.334 0,4.051 0,0C0,-4.05 -3.284,-7.334 -7.334,-7.334" style="fill:white;fill-rule:nonzero;"/>
                </g>
            </g>
            <g opacity="0.2">
                <g transform="matrix(0,-1,-1,0,143.661,181.981)">
                    <path d="M-4.308,-4.308C-6.687,-4.308 -8.616,-2.379 -8.616,0C-8.616,2.379 -6.687,4.308 -4.308,4.308C-1.929,4.308 0,2.379 0,0C0,-2.379 -1.929,-4.308 -4.308,-4.308" style="fill:white;fill-rule:nonzero;"/>
                </g>
            </g>
            <g opacity="0.2">
                <g transform="matrix(0,-1,-1,0,67.8353,135.492)">
                    <path d="M-4.184,-4.184C-6.495,-4.184 -8.368,-2.311 -8.368,0C-8.368,2.31 -6.495,4.184 -4.184,4.184C-1.873,4.184 0,2.31 0,0C0,-2.311 -1.873,-4.184 -4.184,-4.184" style="fill:white;fill-rule:nonzero;"/>
                </g>
            </g>
            <g transform="matrix(1,0,0,1,67.9204,222.911)">
                <path d="M0,12.065L-0.178,12.243C-0.945,13.01 -2.187,13.01 -2.954,12.243L-12.421,2.776C-13.188,2.009 -13.188,0.766 -12.421,0L-12.243,-0.178C-11.477,-0.945 -10.234,-0.945 -9.467,-0.178L0,9.289C0.767,10.056 0.767,11.298 0,12.065" style="fill:rgb(43,29,26);fill-rule:nonzero;"/>
            </g>
            <g transform="matrix(1,0,0,1,60.2062,223.454)">
                <path d="M0,12.065L0.178,12.243C0.945,13.01 2.187,13.01 2.954,12.243L12.421,2.776C13.188,2.009 13.188,0.766 12.421,0L12.243,-0.178C11.477,-0.945 10.234,-0.945 9.467,-0.178L0,9.289C-0.767,10.056 -0.767,11.298 0,12.065" style="fill:rgb(43,29,26);fill-rule:nonzero;"/>
            </g>
            <g transform="matrix(1,0,0,1,64.7573,219.72)">
                <path d="M0,17.315L-0.252,17.315C-1.336,17.315 -2.215,16.436 -2.215,15.352L-2.215,1.963C-2.215,0.879 -1.336,0 -0.252,0L0,0C1.084,0 1.963,0.879 1.963,1.963L1.963,15.352C1.963,16.436 1.084,17.315 0,17.315" style="fill:rgb(43,29,26);fill-rule:nonzero;"/>
            </g>
            <g transform="matrix(-0.232301,-0.972644,-0.972644,0.232301,61.0536,224.801)">
                <path d="M-7.702,-9.758C-12.076,-9.758 -15.621,-6.212 -15.621,-1.838C-15.621,2.534 -12.076,6.08 -7.702,6.08C-3.329,6.08 0.217,2.534 0.217,-1.839C0.217,-6.212 -3.329,-9.758 -7.702,-9.758" style="fill:rgb(43,29,26);fill-rule:nonzero;"/>
            </g>
            <g opacity="0.31">
                <g transform="matrix(0,-1,-1,0,64.6314,243.377)">
                    <path d="M-10.061,-10.061C-15.618,-10.061 -20.122,-5.557 -20.122,0C-20.122,5.556 -15.618,10.061 -10.061,10.061C-4.504,10.061 0,5.556 0,0C0,-5.557 -4.504,-10.061 -10.061,-10.061" style="fill:rgb(245,159,130);fill-rule:nonzero;"/>
                </g>
            </g>
            <g opacity="0.31">
                <g transform="matrix(0,-1,-1,0,112.301,243.377)">
                    <path d="M-10.061,-10.061C-15.618,-10.061 -20.122,-5.557 -20.122,0C-20.122,5.556 -15.618,10.061 -10.061,10.061C-4.504,10.061 0,5.556 0,0C0,-5.557 -4.504,-10.061 -10.061,-10.061" style="fill:rgb(245,159,130);fill-rule:nonzero;"/>
                </g>
            </g>
            <g transform="matrix(0,-1,-1,0,112.797,73.9208)">
                <path d="M-13.09,-13.09C-20.319,-13.09 -26.18,-7.23 -26.18,0C-26.18,7.23 -20.319,13.09 -13.09,13.09C-5.861,13.09 0,7.23 0,0C0,-7.23 -5.861,-13.09 -13.09,-13.09" style="fill:rgb(83,45,38);fill-rule:nonzero;"/>
            </g>
            <g transform="matrix(0,-1,-1,0,67.8349,69.755)">
                <path d="M-32.409,-32.409C-50.308,-32.409 -64.818,-17.899 -64.818,0C-64.818,17.899 -50.308,32.409 -32.409,32.409C-14.51,32.409 0,17.899 0,0C0,-17.899 -14.51,-32.409 -32.409,-32.409" style="fill:rgb(83,45,38);fill-rule:nonzero;"/>
            </g>
            <g transform="matrix(1,0,0,1,118.579,117.416)">
                <path d="M0,16.11L-6.015,22.125C-8.576,24.686 -12.729,24.686 -15.291,22.125L-24.723,12.693C-27.284,10.132 -27.284,5.979 -24.723,3.417L-15.291,-6.015C-12.729,-8.576 -8.576,-8.576 -6.015,-6.015L0,0C4.449,4.449 4.449,11.661 0,16.11" style="fill:rgb(255,28,102);fill-rule:nonzero;"/>
            </g>
            <g transform="matrix(1,0,0,1,92.7072,120.833)">
                <path d="M0,9.276L-9.432,18.708C-11.993,21.269 -16.146,21.269 -18.708,18.708L-24.644,12.771C-29.136,8.279 -29.136,0.997 -24.644,-3.495L-18.708,-9.432C-16.146,-11.993 -11.993,-11.993 -9.432,-9.432L0,0C2.562,2.561 2.562,6.714 0,9.276" style="fill:rgb(255,28,102);fill-rule:nonzero;"/>
            </g>
            <g transform="matrix(1,0,0,1,97.0002,116.307)">
                <path d="M0,16.197L-5.628,16.197C-8.547,16.197 -10.912,13.831 -10.912,10.913L-10.912,5.285C-10.912,2.366 -8.547,0 -5.628,0L0,0C2.918,0 5.284,2.366 5.284,5.285L5.284,10.913C5.284,13.831 2.918,16.197 0,16.197" style="fill:rgb(255,110,160);fill-rule:nonzero;"/>
            </g>
            <g transform="matrix(0,-1,-1,0,94.7033,58.1659)">
                <path d="M-14.6,-14.6C-22.663,-14.6 -29.199,-8.064 -29.199,-0.001C-29.199,8.062 -22.663,14.6 -14.6,14.6C-6.537,14.6 -0.001,8.062 -0.001,-0.001C-0.001,-8.064 -6.537,-14.6 -14.6,-14.6" style="fill:rgb(83,45,38);fill-rule:nonzero;"/>
            </g>
            <g transform="matrix(-0.232295,-0.972645,-0.972645,0.232295,118.331,89.4126)">
                <path d="M-23.306,-29.526C-36.539,-29.526 -47.267,-18.799 -47.266,-5.565C-47.266,7.668 -36.539,18.396 -23.306,18.396C-10.073,18.396 0.656,7.668 0.655,-5.566C0.655,-18.799 -10.073,-29.526 -23.306,-29.526" style="fill:rgb(83,45,38);fill-rule:nonzero;"/>
            </g>
        </g>
        <g transform="matrix(2.09003,0,0,3.71561,367.013,1224.08)">
            <g transform="matrix(-1,0,0,1,16.3282,71.8126)">
                <path d="M-83.071,27.208L0,27.208C0,12.182 -12.181,0 -27.208,0L-55.863,0C-70.89,0 -83.071,12.182 -83.071,27.208Z" style="fill:rgb(229,129,21);fill-rule:nonzero;"/>
            </g>
            <g transform="matrix(1,0,0,1,59.3015,78.0422)">
                <path d="M0,-6.169C-11.917,-6.169 -21.669,-15.429 -22.458,-27.147C-22.492,-26.64 -22.511,-26.129 -22.511,-25.613L-22.511,20.978L22.511,20.978L22.511,-25.613C22.511,-26.129 22.492,-26.64 22.458,-27.147C21.669,-15.429 11.917,-6.169 0,-6.169" style="fill:rgb(255,171,46);fill-rule:nonzero;"/>
            </g>
            <g transform="matrix(-1,0,0,1,59.3015,71.8732)">
                <path d="M0,-41.955C11.917,-41.955 21.669,-32.695 22.458,-20.977C21.669,-9.26 11.917,0 0,0C-11.917,0 -21.669,-9.26 -22.458,-20.977C-21.669,-32.695 -11.917,-41.955 0,-41.955" style="fill:rgb(229,129,21);fill-rule:nonzero;"/>
            </g>
            <g transform="matrix(-1,0,0,1,62.164,-0.7282)">
                <path d="M-25.272,22.93L0,22.93L-21.561,1.369C-22.93,0 -25.272,0.97 -25.272,2.906L-25.272,22.93Z" style="fill:rgb(247,148,30);fill-rule:nonzero;"/>
            </g>
            <g transform="matrix(1,0,0,1,31.3643,-0.7282)">
                <path d="M0,22.93L25.272,22.93L3.711,1.369C2.342,0 0,0.97 0,2.906L0,22.93Z" style="fill:rgb(247,148,30);fill-rule:nonzero;"/>
            </g>
            <g transform="matrix(1,0,0,1,75.2743,16.7665)">
                <path d="M0,35.248L-31.946,35.248C-41.679,35.248 -49.57,27.357 -49.57,17.624C-49.57,7.89 -41.679,0 -31.946,0L0,0C9.734,0 17.624,7.89 17.624,17.624C17.624,27.357 9.734,35.248 0,35.248" style="fill:rgb(255,171,46);fill-rule:nonzero;"/>
            </g>
            <g transform="matrix(1,0,0,1,75.2743,38.2405)">
                <path d="M0,6.074L-31.946,6.074C-40.356,6.074 -47.386,0.181 -49.143,-7.7C-49.419,-6.46 -49.57,-5.173 -49.57,-3.85C-49.57,5.883 -41.679,13.774 -31.946,13.774L0,13.774C9.734,13.774 17.624,5.883 17.624,-3.85C17.624,-5.173 17.474,-6.46 17.197,-7.7C15.44,0.181 8.411,6.074 0,6.074" style="fill:rgb(247,148,30);fill-rule:nonzero;"/>
            </g>
            <g transform="matrix(0,-1,-1,0,48.4771,21.2802)">
                <path d="M-8.638,-8.638C-13.409,-8.638 -17.276,-4.771 -17.276,0C-17.276,4.77 -13.409,8.638 -8.638,8.638C-3.867,8.638 0,4.77 0,0C0,-4.771 -3.867,-8.638 -8.638,-8.638" style="fill:white;fill-rule:nonzero;"/>
            </g>
            <g transform="matrix(0,-1,-1,0,48.4773,25.0317)">
                <path d="M-4.887,-4.887C-7.585,-4.887 -9.773,-2.698 -9.773,0C-9.773,2.699 -7.585,4.887 -4.887,4.887C-2.188,4.887 0,2.699 0,0C0,-2.698 -2.188,-4.887 -4.887,-4.887" style="fill-rule:nonzero;"/>
            </g>
            <g transform="matrix(0,-1,-1,0,70.195,21.2802)">
                <path d="M-8.638,-8.638C-13.409,-8.638 -17.276,-4.771 -17.276,0C-17.276,4.77 -13.409,8.638 -8.638,8.638C-3.867,8.638 0,4.77 0,0C0,-4.771 -3.867,-8.638 -8.638,-8.638" style="fill:white;fill-rule:nonzero;"/>
            </g>
            <g transform="matrix(1,0,0,1,62.2362,32.3371)">
                <path d="M0,6.476L-5.87,6.476C-7.658,6.476 -9.108,5.026 -9.108,3.238C-9.108,1.449 -7.658,0 -5.87,0L0,0C1.788,0 3.238,1.449 3.238,3.238C3.238,5.026 1.788,6.476 0,6.476" style="fill:rgb(255,153,182);fill-rule:nonzero;"/>
            </g>
            <g transform="matrix(1,0,0,1,62.2362,36.2824)">
                <path d="M0,1.116L-5.87,1.116C-7.415,1.116 -8.706,0.033 -9.029,-1.415C-9.08,-1.187 -9.108,-0.95 -9.108,-0.707C-9.108,1.081 -7.658,2.531 -5.87,2.531L0,2.531C1.788,2.531 3.238,1.081 3.238,-0.707C3.238,-0.95 3.211,-1.187 3.16,-1.415C2.837,0.033 1.545,1.116 0,1.116" style="fill:rgb(221,128,159);fill-rule:nonzero;"/>
            </g>
            <g transform="matrix(1,0,0,1,62.8489,32.7649)">
                <path d="M0,1.283L-1.876,1.283C-2.23,1.283 -2.517,0.996 -2.517,0.641C-2.517,0.287 -2.23,0 -1.876,0L0,0C0.354,0 0.642,0.287 0.642,0.641C0.642,0.996 0.354,1.283 0,1.283" style="fill:rgb(221,128,159);fill-rule:nonzero;"/>
            </g>
            <g transform="matrix(0,-1,-1,0,70.1952,25.0317)">
                <path d="M-4.887,-4.887C-7.585,-4.887 -9.773,-2.698 -9.773,0C-9.773,2.699 -7.585,4.887 -4.887,4.887C-2.188,4.887 0,2.699 0,0C0,-2.698 -2.188,-4.887 -4.887,-4.887" style="fill-rule:nonzero;"/>
            </g>
            <g transform="matrix(1,0,0,1,84.726,36.8771)">
                <path d="M0,-5.49L-6.192,0.702C-6.385,0.895 -6.699,0.895 -6.893,0.702C-7.087,0.508 -7.087,0.194 -6.893,0L-0.701,-6.191C-0.508,-6.385 -0.194,-6.385 0,-6.191C0.194,-5.998 0.194,-5.684 0,-5.49" style="fill:white;fill-rule:nonzero;"/>
            </g>
            <g transform="matrix(1,0,0,1,84.726,37.6372)">
                <path d="M0,5.49L-6.192,-0.702C-6.385,-0.895 -6.699,-0.895 -6.893,-0.702C-7.087,-0.508 -7.087,-0.194 -6.893,0L-0.701,6.191C-0.508,6.385 -0.194,6.385 0,6.191C0.194,5.998 0.194,5.684 0,5.49" style="fill:white;fill-rule:nonzero;"/>
            </g>
            <g transform="matrix(1,0,0,1,86.94,36.7903)">
                <path d="M0,0.992L-8.756,0.992C-9.03,0.992 -9.252,0.77 -9.252,0.496C-9.252,0.222 -9.03,0 -8.756,0L0,0C0.274,0 0.496,0.222 0.496,0.496C0.496,0.77 0.274,0.992 0,0.992" style="fill:white;fill-rule:nonzero;"/>
            </g>
            <g transform="matrix(1,0,0,1,34.5791,36.8771)">
                <path d="M0,-5.49L6.192,0.702C6.385,0.895 6.699,0.895 6.893,0.702C7.087,0.508 7.087,0.194 6.893,0L0.701,-6.191C0.508,-6.385 0.194,-6.385 0,-6.191C-0.194,-5.998 -0.194,-5.684 0,-5.49" style="fill:white;fill-rule:nonzero;"/>
            </g>
            <g transform="matrix(1,0,0,1,34.5791,37.6372)">
                <path d="M0,5.49L6.192,-0.702C6.385,-0.895 6.699,-0.895 6.893,-0.702C7.087,-0.508 7.087,-0.194 6.893,0L0.701,6.191C0.508,6.385 0.194,6.385 0,6.191C-0.194,5.998 -0.194,5.684 0,5.49" style="fill:white;fill-rule:nonzero;"/>
            </g>
            <g transform="matrix(1,0,0,1,32.3651,36.7903)">
                <path d="M0,0.992L8.756,0.992C9.03,0.992 9.252,0.77 9.252,0.496C9.252,0.222 9.03,0 8.756,0L0,0C-0.274,0 -0.496,0.222 -0.496,0.496C-0.496,0.77 -0.274,0.992 0,0.992" style="fill:white;fill-rule:nonzero;"/>
            </g>
            <g transform="matrix(1,0,0,1,24.4038,60.0393)">
                <path d="M0,33.484L-12.735,33.484C-19.169,33.484 -24.404,28.249 -24.404,21.815C-24.404,15.38 -19.169,10.146 -12.735,10.146L-6.071,10.146C-5.729,10.146 -5.45,9.867 -5.45,9.524L-5.45,3.229C-5.45,1.446 -4.004,0 -2.221,0C-0.438,0 1.008,1.446 1.008,3.229L1.008,9.524C1.008,13.428 -2.168,16.603 -6.071,16.603L-12.735,16.603C-15.608,16.603 -17.946,18.941 -17.946,21.815C-17.946,24.688 -15.608,27.026 -12.735,27.026L0,27.026C1.783,27.026 3.229,28.472 3.229,30.255C3.229,32.038 1.783,33.484 0,33.484" style="fill:rgb(229,129,21);fill-rule:nonzero;"/>
            </g>
            <g transform="matrix(1,0,0,1,22.1827,54.1931)">
                <path d="M0,12.304C-1.783,12.304 -3.229,10.858 -3.229,9.075L-3.229,3.228C-3.229,1.445 -1.783,0 0,0C1.783,0 3.229,1.445 3.229,3.228L3.229,9.075C3.229,10.858 1.783,12.304 0,12.304" style="fill:rgb(255,171,46);fill-rule:nonzero;"/>
            </g>
            <g transform="matrix(1,0,0,1,69.1422,88.9016)">
                <path d="M0,10.119L-13.944,10.119L-13.944,6.972C-13.944,3.122 -10.822,0 -6.972,0C-3.121,0 0,3.122 0,6.972L0,10.119Z" style="fill:rgb(255,198,123);fill-rule:nonzero;"/>
            </g>
            <g transform="matrix(1,0,0,1,85.3319,88.9016)">
                <path d="M0,10.119L-13.944,10.119L-13.944,6.972C-13.944,3.122 -10.822,0 -6.972,0C-3.121,0 0,3.122 0,6.972L0,10.119Z" style="fill:rgb(255,198,123);fill-rule:nonzero;"/>
            </g>
            <g transform="matrix(1,0,0,1,45.5157,71.3432)">
                <path d="M0,9.456C-1.063,9.456 -1.925,8.594 -1.925,7.531L-1.925,1.924C-1.925,0.861 -1.063,0 0,0C1.063,0 1.925,0.861 1.925,1.924L1.925,7.531C1.925,8.594 1.063,9.456 0,9.456" style="fill:rgb(229,129,21);fill-rule:nonzero;"/>
            </g>
            <g transform="matrix(1,0,0,1,50.4023,84.1743)">
                <path d="M0,9.456C-1.063,9.456 -1.925,8.594 -1.925,7.531L-1.925,1.924C-1.925,0.861 -1.063,0 0,0C1.063,0 1.925,0.861 1.925,1.924L1.925,7.531C1.925,8.594 1.063,9.456 0,9.456" style="fill:rgb(229,129,21);fill-rule:nonzero;"/>
            </g>
            <g transform="matrix(1,0,0,1,71.388,72.0537)">
                <path d="M0,9.456C-1.063,9.456 -1.925,8.594 -1.925,7.531L-1.925,1.924C-1.925,0.861 -1.063,0 0,0C1.063,0 1.925,0.861 1.925,1.924L1.925,7.531C1.925,8.594 1.063,9.456 0,9.456" style="fill:rgb(229,129,21);fill-rule:nonzero;"/>
            </g>
            <g transform="matrix(1,0,0,1,59.3014,74.9586)">
                <path d="M0,9.456C-1.063,9.456 -1.925,8.594 -1.925,7.531L-1.925,1.924C-1.925,0.861 -1.063,0 0,0C1.063,0 1.925,0.861 1.925,1.924L1.925,7.531C1.925,8.594 1.063,9.456 0,9.456" style="fill:rgb(229,129,21);fill-rule:nonzero;"/>
            </g>
            <g transform="matrix(1,0,0,1,29.4432,25.0317)">
                <path d="M0,0C0,-1.063 0.862,-1.925 1.925,-1.925L7.532,-1.925C8.595,-1.925 9.456,-1.063 9.456,0C9.456,1.063 8.595,1.925 7.532,1.925L1.925,1.925C0.862,1.925 0,1.063 0,0" style="fill:rgb(229,129,21);fill-rule:nonzero;"/>
            </g>
            <g transform="matrix(1,0,0,1,79.6412,25.0317)">
                <path d="M0,0C0,-1.063 0.862,-1.925 1.925,-1.925L7.532,-1.925C8.595,-1.925 9.456,-1.063 9.456,0C9.456,1.063 8.595,1.925 7.532,1.925L1.925,1.925C0.862,1.925 0,1.063 0,0" style="fill:rgb(229,129,21);fill-rule:nonzero;"/>
            </g>
        </g>
    </g>
</svg>
